<?xml version="1.0" encoding="UTF-8"?>
<svg width="120px" height="34px" viewBox="0 0 120 34" version="1.1" xmlns="http://www.w3.org/2000/svg" xmlns:xlink="http://www.w3.org/1999/xlink">
    <!-- Generator: Sketch 48.2 (47327) - http://www.bohemiancoding.com/sketch -->
    <title>Group Copy</title>
    <desc>Created with Sketch.</desc>
    <defs></defs>
    <g id="Lndr-Request-A-demo" stroke="none" stroke-width="1" fill="none" fill-rule="evenodd" transform="translate(-92.000000, -77.000000)">
        <g id="Group-Copy" transform="translate(92.000000, 77.000000)">
            <path d="M7.44226565,3.85358272 C11.083021,3.85358272 13.9494365,6.71999828 13.9494365,10.7003763 C13.9494365,14.6807543 11.083021,17.5471699 7.44226565,17.5471699 C5.59471818,17.5471699 4.2633972,16.7999999 3.36679328,15.6588677 L3.36679328,20.3773594 L0.527547535,20.3773594 L0.527547535,4.19320541 L3.36679328,4.19320541 L3.36679328,5.74188491 C4.2633972,4.60075265 5.59471818,3.85358272 7.44226565,3.85358272 Z" id="Path" fill="#000000"></path>
            <path d="M7.10264295,6.52980957 C4.75245389,6.52980957 3.17660457,8.32301741 3.17660457,10.7003763 C3.17660457,13.0777352 4.75245389,14.870943 7.10264295,14.870943 C9.54792637,14.870943 11.0286813,12.9826408 11.0286813,10.7003763 C11.0286813,8.41811177 9.54792637,6.52980957 7.10264295,6.52980957 Z" id="Path" fill="#FFFFFF"></path>
            <path d="M24.0566052,3.85358272 C24.9260393,3.85358272 25.5916998,3.96226198 26.2437754,4.22037523 L25.56453,7.03245116 C24.966794,6.71999828 24.0973599,6.55697939 23.4045296,6.55697939 C21.5977369,6.55697939 20.3071706,7.83396073 20.3071706,10.0483007 L20.3071706,17.2075472 L17.4679249,17.2075472 L17.4679249,4.19320541 L20.2800008,4.19320541 L20.2800008,5.66037547 C21.13585,4.42414885 22.467171,3.85358272 24.0566052,3.85358272 Z" id="Path" fill="#000000"></path>
            <path d="M35.1962278,3.85358272 C39.2173605,3.85358272 42.2060402,6.80150773 42.2060402,10.7003763 C42.2060402,14.5992449 39.2173605,17.5471699 35.1962278,17.5471699 C31.175095,17.5471699 28.2000002,14.5992449 28.2000002,10.7003763 C28.2000002,6.80150773 31.175095,3.85358272 35.1962278,3.85358272 Z" id="Path" fill="#000000"></path>
            <path d="M35.1962278,6.52980957 C32.8732085,6.52980957 31.1207554,8.24150796 31.1207554,10.7003763 C31.1207554,13.1592446 32.8732085,14.870943 35.1962278,14.870943 C37.519247,14.870943 39.285285,13.1592446 39.285285,10.7003763 C39.285285,8.24150796 37.519247,6.52980957 35.1962278,6.52980957 Z" id="Path" fill="#FFFFFF"></path>
            <path d="M52.2000013,3.85358272 C54.0475488,3.85358272 55.3924546,4.61433756 56.2890586,5.76905473 L56.2890586,1.26792132 L59.1283043,1.26792132 L59.1283043,17.2075472 L56.2890586,17.2075472 L56.2890586,15.6452828 C55.3924546,16.7999999 54.0475488,17.5471699 52.2000013,17.5471699 C48.559246,17.5471699 45.6928304,14.6807543 45.6928304,10.7003763 C45.6928304,6.71999828 48.559246,3.85358272 52.2000013,3.85358272 Z" id="Path" fill="#000000"></path>
            <path d="M52.539624,6.52980957 C50.0943406,6.52980957 48.6135856,8.41811177 48.6135856,10.7003763 C48.6135856,12.9826408 50.0943406,14.870943 52.539624,14.870943 C54.889813,14.870943 56.4656624,13.0777352 56.4656624,10.7003763 C56.4656624,8.32301741 54.889813,6.52980957 52.539624,6.52980957 Z" id="Path" fill="#FFFFFF"></path>
            <path d="M75.9645306,4.19320541 L75.9645306,11.6920746 C75.9645306,15.8354715 72.9758509,17.5471699 69.9328315,17.5471699 C66.8762272,17.5471699 63.9011324,15.8354715 63.9011324,11.6920746 L63.9011324,4.19320541 L66.7539631,4.19320541 L66.7539631,11.4339613 C66.7539631,13.9471693 68.1532086,14.870943 69.9328315,14.870943 C71.7124545,14.870943 73.1117,13.9471693 73.1117,11.4339613 L73.1117,4.19320541 L75.9645306,4.19320541 Z" id="Path" fill="#000000"></path>
            <path d="M86.6467938,3.85358272 C88.5894356,3.85358272 90.3554736,4.55999793 91.5101908,5.93207362 L89.6898132,7.87471545 C88.7796243,7.01886625 87.8150959,6.52980957 86.5652843,6.52980957 C84.3781142,6.52980957 82.7207554,8.24150796 82.7207554,10.7003763 C82.7207554,13.1592446 84.3781142,14.870943 86.5652843,14.870943 C87.8150959,14.870943 88.9290583,14.286792 89.7577377,13.5124522 L91.5101908,15.468679 C90.3283038,16.8407547 88.5894356,17.5471699 86.6467938,17.5471699 C82.5033969,17.5471699 79.8000002,14.5992449 79.8000002,10.7003763 C79.8000002,6.80150773 82.5033969,3.85358272 86.6467938,3.85358272 Z" id="Path" fill="#000000"></path>
            <path d="M104.465662,4.19320541 L104.465662,6.77433791 L99.480001,6.77433791 L99.480001,12.4392445 C99.480001,14.1916976 100.403775,14.870943 101.544907,14.870943 C102.427926,14.870943 103.392454,14.4769807 104.166794,13.987924 L105.294342,16.2566036 C104.248304,16.9630188 102.930568,17.5471699 101.300379,17.5471699 C98.3524536,17.5471699 96.6271703,15.9577356 96.6271703,12.4935841 L96.6271703,6.77433791 L94.0324529,6.77433791 L94.0324529,4.19320541 L96.6271703,4.19320541 L96.6271703,0.253582127 L99.480001,0.253582127 L99.480001,4.19320541 L104.465662,4.19320541 Z" id="Path" fill="#000000"></path>
            <path d="M119.368304,5.23924332 L118.145662,7.45358331 C117.357738,6.96452662 115.741133,6.33962086 114.124529,6.33962086 C112.57585,6.33962086 111.665661,6.96452662 111.665661,7.88830036 C111.665661,8.79848919 112.616605,9.05660244 113.812077,9.23320624 L115.156982,9.43697986 C117.996228,9.84452709 119.680757,11.0535839 119.680757,13.2815088 C119.680757,15.7811318 117.507172,17.533585 113.757737,17.533585 C112.412831,17.533585 110.076227,17.2754717 108.17434,15.8626413 L109.492076,13.7298108 C110.429435,14.4498109 111.665661,15.0611317 113.784907,15.0611317 C115.727549,15.0611317 116.746417,14.4498109 116.746417,13.4716975 C116.746417,12.7381125 116.040001,12.2490558 114.491322,12.0316973 L113.132831,11.8550935 C110.252831,11.4611311 108.717736,10.1298102 108.717736,8.03773435 C108.717736,5.45660185 110.782642,3.86716762 114.09736,3.86716762 C116.135096,3.86716762 118.023398,4.36980922 119.368304,5.23924332 Z" id="Path" fill="#000000"></path>
            <path d="M22.4476985,28.5464145 C23.4185666,28.5464145 24.1503403,29.3397731 24.1503403,30.393962 C24.1503403,31.4481508 23.4185666,32.2415094 22.4513212,32.2415094 C21.9658871,32.2415094 21.6289814,32.0458868 21.4007549,31.7633207 L21.4007549,32.1509434 L20.4769812,32.1509434 L20.4769812,26.9343388 L21.4188682,26.9343388 L21.4188682,29.0064901 C21.6470946,28.7311693 21.976755,28.5464145 22.4476985,28.5464145 Z M22.2738117,29.4267165 C21.7376607,29.4267165 21.3717738,29.8396977 21.3717738,30.393962 C21.3717738,30.9482262 21.7376607,31.3612074 22.2738117,31.3612074 C22.8316986,31.3612074 23.1794722,30.930113 23.1794722,30.393962 C23.1794722,29.8578109 22.8316986,29.4267165 22.2738117,29.4267165 Z M28.4793969,28.6406032 L25.7950191,33.6144908 L24.7589435,33.6144908 L25.9870191,31.4046791 L24.4727547,28.6406032 L25.5450568,28.6406032 L26.5086796,30.444679 L27.4433212,28.6406032 L28.4793969,28.6406032 Z M34.4350195,29.1658863 L34.4350195,30.0969053 L31.8919248,30.0969053 L31.8919248,32.1509434 L30.8812076,32.1509434 L30.8812076,27.0792445 L34.6052837,27.0792445 L34.6052837,28.0102635 L31.8919248,28.0102635 L31.8919248,29.1658863 L34.4350195,29.1658863 Z M39.079246,29.1658863 L39.079246,30.0969053 L36.5361512,30.0969053 L36.5361512,32.1509434 L35.5254341,32.1509434 L35.5254341,27.0792445 L39.2495101,27.0792445 L39.2495101,28.0102635 L36.5361512,28.0102635 L36.5361512,29.1658863 L39.079246,29.1658863 Z M47.3678503,27.0792445 L45.8535859,32.1509434 L44.6291329,32.1509434 L43.5423403,28.5283013 L42.4555476,32.1509434 L41.2310946,32.1509434 L39.7168302,27.0792445 L40.7673964,27.0792445 L41.8578117,30.9699621 L42.9916987,27.0792445 L44.1110951,27.0792445 L45.2449821,30.9699621 L46.3353973,27.0792445 L47.3678503,27.0792445 Z" id="by-FFW" fill="#000000"></path>
            <rect id="Rectangle" fill="#000000" x="0" y="29.4339623" width="17.2075472" height="1"></rect>
        </g>
    </g>
</svg>
