<?xml version="1.0" encoding="UTF-8"?>
<svg width="91px" height="30px" viewBox="0 0 91 30" version="1.1" xmlns="http://www.w3.org/2000/svg" xmlns:xlink="http://www.w3.org/1999/xlink">
    <!-- Generator: Sketch 49 (51002) - http://www.bohemiancoding.com/sketch -->
    <title>Paths</title>
    <desc>Created with Sketch.</desc>
    <defs></defs>
    <g id="Page-1" stroke="none" stroke-width="1" fill="none" fill-rule="evenodd">
        <g id="Layout" transform="translate(-90.000000, -69.000000)" fill="#2D2D2D">
            <g id="Incc-Logo" transform="translate(90.000000, 69.000000)">
                <g id="Paths">
                    <path d="M63.1296589,3.56295325 C61.621057,5.51242874 60.5258148,7.8139965 59.9288221,10.382175 L59.8382568,10.4338843 C58.3236061,7.97520661 55.9375126,6.61157025 52.9289599,6.61157025 C48.3435106,6.61157025 44.9407337,10.0413223 44.9407337,15 C44.9407337,20.3719008 48.6547402,23.3884298 52.9497085,23.3884298 C55.8720702,23.3884298 58.2637003,22.0671949 59.9221302,19.6465017 C60.5143778,22.2123066 61.6034986,24.5127262 63.1050354,26.4627142 C60.5062884,28.6958601 57.0617743,30 53.0119544,30 C44.0485422,30 37.7202073,23.7603306 37.7202073,15 C37.7202073,6.23966942 44.0485422,0 53.0119544,0 C56.9102679,0 60.490086,1.27884053 63.1296589,3.56295325 Z" id="Combined-Shape"></path>
                    <path d="M78.0015917,0 C69.0381796,0 62.7098446,6.23966942 62.7098446,15 C62.7098446,23.7603306 69.0381796,30 78.0015917,30 C83.5622271,30 87.9816872,27.5413223 90.6375131,23.5950413 L84.9523859,19.5867769 C83.2924948,22.0454545 80.8856526,23.3884298 77.9393458,23.3884298 C73.6443775,23.3884298 69.930371,20.3719008 69.930371,15 C69.930371,10.0413223 73.3331479,6.61157025 77.9185972,6.61157025 C80.9271499,6.61157025 83.3132434,7.97520661 84.8278941,10.4338843 L90.9072454,6.96280992 C88.4381573,2.58264463 83.5414784,0 78.0015917,0 Z" id="Path"></path>
                    <polygon id="Path" points="6.60103627 1.40625 0 1.40625 0 29.0625 6.60103627 29.0625"></polygon>
                    <polygon id="Path" points="35.3626943 1.40625 28.6438735 1.40625 28.6438735 18.2765625 15.8480298 1.40625 9.43005181 1.40625 9.43005181 29.0625 16.1288164 29.0625 16.1288164 12.1921875 28.9246601 29.0625 35.3626943 29.0625"></polygon>
                </g>
            </g>
        </g>
    </g>
</svg>