<?xml version="1.0" encoding="UTF-8"?>
<svg width="25px" height="22px" viewBox="0 0 25 22" version="1.1" xmlns="http://www.w3.org/2000/svg" xmlns:xlink="http://www.w3.org/1999/xlink">
    <!-- Generator: Sketch 48.1 (47250) - http://www.bohemiancoding.com/sketch -->
    <title>Page 1</title>
    <desc>Created with Sketch.</desc>
    <defs>
        <polygon id="path-1" points="0 0.521052632 1.13636364 0.521052632 1.13636364 5.73152105 0 5.73152105 0 0.521052632"></polygon>
        <polygon id="path-3" points="8.07434927e-15 0.521052632 1.13636364 0.521052632 1.13636364 5.73152105 0 5.73152105 0 0.521052632"></polygon>
    </defs>
    <g id="Draft-2" stroke="none" stroke-width="1" fill="none" fill-rule="evenodd" transform="translate(-123.000000, -2641.000000)">
        <g id="Page-1" transform="translate(123.000000, 2641.000000)">
            <path d="M1.08695652,3.40031898 L1.08695652,20.9154705 L23.9130435,20.9154705 C23.9320652,20.9154705 23.9402174,20.9127592 23.9402174,20.9127592 L23.9130435,3.40031898 L1.08695652,3.40031898 Z M23.9130435,22 L1.08695652,22 C0.457065217,22 0,21.5439553 0,20.9154705 L0,3.40031898 C0,2.77183413 0.457065217,2.31578947 1.08695652,2.31578947 L23.9130435,2.31578947 C24.5429348,2.31578947 25,2.77183413 25,3.40031898 L25,20.9154705 C25,21.5439553 24.5429348,22 23.9130435,22 Z" id="Fill-1" fill="#333333"></path>
            <path d="M24.4444444,8.10526316 L0.555555556,8.10526316 C0.248888889,8.10526316 0,7.84589474 0,7.52631579 C0,7.20673684 0.248888889,6.94736842 0.555555556,6.94736842 L24.4444444,6.94736842 C24.7516667,6.94736842 25,7.20673684 25,7.52631579 C25,7.84589474 24.7516667,8.10526316 24.4444444,8.10526316" id="Fill-3" fill="#333333"></path>
            <g id="Group-7" transform="translate(4.545455, 0.000000)">
                <mask id="mask-2" fill="white">
                    <use xlink:href="#path-1"></use>
                </mask>
                <g id="Clip-6"></g>
                <path d="M0.568181818,5.73152105 C0.254545455,5.73152105 0,5.47215263 0,5.15257368 L0,1.09994211 C0,0.780363158 0.254545455,0.520994737 0.568181818,0.520994737 C0.881818182,0.520994737 1.13636364,0.780363158 1.13636364,1.09994211 L1.13636364,5.15257368 C1.13636364,5.47215263 0.881818182,5.73152105 0.568181818,5.73152105" id="Fill-5" fill="#333333" mask="url(#mask-2)"></path>
            </g>
            <g id="Group-10" transform="translate(20.454545, 0.000000)">
                <mask id="mask-4" fill="white">
                    <use xlink:href="#path-3"></use>
                </mask>
                <g id="Clip-9"></g>
                <path d="M0.568181818,5.73152105 C0.253977273,5.73152105 0,5.47215263 0,5.15257368 L0,1.09994211 C0,0.780363158 0.253977273,0.520994737 0.568181818,0.520994737 C0.882386364,0.520994737 1.13636364,0.780363158 1.13636364,1.09994211 L1.13636364,5.15257368 C1.13636364,5.47215263 0.882386364,5.73152105 0.568181818,5.73152105" id="Fill-8" fill="#333333" mask="url(#mask-4)"></path>
            </g>
            <path d="M4.41176471,11.4427245 L4.41176471,12.873065 L5.81851604,12.873065 L5.81550802,11.4427245 L4.41176471,11.4427245 Z M5.81550802,13.8947368 L4.41176471,13.8947368 C3.83071524,13.8947368 3.40909091,13.4651238 3.40909091,12.873065 L3.40909091,11.4427245 C3.40909091,10.8506656 3.83071524,10.4210526 4.41176471,10.4210526 L5.81550802,10.4210526 C6.39655749,10.4210526 6.81818182,10.8506656 6.81818182,11.4427245 L6.81818182,12.873065 C6.81818182,13.436517 6.36848262,13.8947368 5.81550802,13.8947368 Z" id="Fill-11" fill="#333333"></path>
            <path d="M8.95721925,11.4427245 L8.95721925,12.873065 L10.3639706,12.873065 L10.3609626,11.4427245 L8.95721925,11.4427245 Z M10.3609626,13.8947368 L8.95721925,13.8947368 C8.37616979,13.8947368 7.95454545,13.4651238 7.95454545,12.873065 L7.95454545,11.4427245 C7.95454545,10.8506656 8.37616979,10.4210526 8.95721925,10.4210526 L10.3609626,10.4210526 C10.9415107,10.4210526 11.3636364,10.8506656 11.3636364,11.4427245 L11.3636364,12.873065 C11.3636364,13.436517 10.9139372,13.8947368 10.3609626,13.8947368 Z" id="Fill-13" fill="#333333"></path>
            <path d="M13.5026738,11.4427245 L13.5026738,12.873065 L14.8783422,12.873065 L14.9064171,11.4427245 L13.5026738,11.4427245 Z M14.9064171,13.8947368 L13.5026738,13.8947368 C12.9216243,13.8947368 12.5,13.4651238 12.5,12.873065 L12.5,11.4427245 C12.5,10.8506656 12.9216243,10.4210526 13.5026738,10.4210526 L14.9064171,10.4210526 C15.4874666,10.4210526 15.9090909,10.8506656 15.9090909,11.4427245 L15.9090909,12.873065 C15.9090909,13.4079102 15.4313168,13.8947368 14.9064171,13.8947368 Z" id="Fill-15" fill="#333333"></path>
            <path d="M18.0481283,11.4427245 L18.0481283,12.873065 L19.4548797,12.873065 L19.4518717,11.4427245 L18.0481283,11.4427245 Z M19.4518717,13.8947368 L18.0481283,13.8947368 C17.4670789,13.8947368 17.0454545,13.4651238 17.0454545,12.873065 L17.0454545,11.4427245 C17.0454545,10.8506656 17.4670789,10.4210526 18.0481283,10.4210526 L19.4518717,10.4210526 C20.0329211,10.4210526 20.4545455,10.8506656 20.4545455,11.4427245 L20.4545455,12.873065 C20.4545455,13.436517 20.0043449,13.8947368 19.4518717,13.8947368 Z" id="Fill-17" fill="#333333"></path>
            <path d="M4.41176471,16.0743034 L4.41176471,17.504644 L5.81851604,17.504644 L5.81550802,16.0743034 L4.41176471,16.0743034 Z M5.81550802,18.5263158 L4.41176471,18.5263158 C3.83071524,18.5263158 3.40909091,18.0967028 3.40909091,17.504644 L3.40909091,16.0743034 C3.40909091,15.4822446 3.83071524,15.0526316 4.41176471,15.0526316 L5.81550802,15.0526316 C6.39655749,15.0526316 6.81818182,15.4822446 6.81818182,16.0743034 L6.81818182,17.504644 C6.81818182,18.0675851 6.36848262,18.5263158 5.81550802,18.5263158 Z" id="Fill-19" fill="#333333"></path>
            <path d="M8.95721925,16.0743034 L8.95721925,17.504644 L10.3639706,17.504644 L10.3609626,16.0743034 L8.95721925,16.0743034 Z M10.3609626,18.5263158 L8.95721925,18.5263158 C8.37616979,18.5263158 7.95454545,18.0967028 7.95454545,17.504644 L7.95454545,16.0743034 C7.95454545,15.4822446 8.37616979,15.0526316 8.95721925,15.0526316 L10.3609626,15.0526316 C10.9415107,15.0526316 11.3636364,15.4822446 11.3636364,16.0743034 L11.3636364,17.504644 C11.3636364,18.0675851 10.9139372,18.5263158 10.3609626,18.5263158 Z" id="Fill-21" fill="#333333"></path>
            <path d="M13.5026738,16.0743034 L13.5026738,17.504644 L14.8783422,17.504644 L14.9064171,16.0743034 L13.5026738,16.0743034 Z M14.9064171,18.5263158 L13.5026738,18.5263158 C12.9216243,18.5263158 12.5,18.0967028 12.5,17.504644 L12.5,16.0743034 C12.5,15.4822446 12.9216243,15.0526316 13.5026738,15.0526316 L14.9064171,15.0526316 C15.4874666,15.0526316 15.9090909,15.4822446 15.9090909,16.0743034 L15.9090909,17.504644 C15.9090909,18.0394892 15.4313168,18.5263158 14.9064171,18.5263158 Z" id="Fill-23" fill="#333333"></path>
            <path d="M18.0481283,16.0743034 L18.0481283,17.504644 L19.4548797,17.504644 L19.4518717,16.0743034 L18.0481283,16.0743034 Z M19.4518717,18.5263158 L18.0481283,18.5263158 C17.4670789,18.5263158 17.0454545,18.0967028 17.0454545,17.504644 L17.0454545,16.0743034 C17.0454545,15.4822446 17.4670789,15.0526316 18.0481283,15.0526316 L19.4518717,15.0526316 C20.0329211,15.0526316 20.4545455,15.4822446 20.4545455,16.0743034 L20.4545455,17.504644 C20.4545455,18.0675851 20.0043449,18.5263158 19.4518717,18.5263158 Z" id="Fill-25" fill="#333333"></path>
        </g>
    </g>
</svg>