<?xml version="1.0" encoding="UTF-8"?>
<svg width="21px" height="20px" viewBox="0 0 21 20" version="1.1" xmlns="http://www.w3.org/2000/svg" xmlns:xlink="http://www.w3.org/1999/xlink">
    <!-- Generator: Sketch 48.1 (47250) - http://www.bohemiancoding.com/sketch -->
    <title>Group 2</title>
    <desc>Created with Sketch.</desc>
    <defs></defs>
    <g id="Draft-1" stroke="none" stroke-width="1" fill="none" fill-rule="evenodd" transform="translate(-1427.000000, -3290.000000)">
        <g id="Page-1" transform="translate(1315.000000, 3289.000000)" fill="#020303">
            <g id="Group-2" transform="translate(112.000000, 1.000000)">
                <path d="M10.8843,0.0001 C8.1903,0.0001 7.8523,0.0111 6.7933,0.0601 C5.7383,0.1081 5.0163,0.2751 4.3853,0.5211 C3.7333,0.7741 3.1793,1.1131 2.6273,1.6651 C2.0763,2.2171 1.7373,2.7701 1.4843,3.4221 C1.2383,4.0531 1.0713,4.7741 1.0223,5.8311 C0.9743,6.8891 0.9623,7.2271 0.9623,9.9211 C0.9623,12.6161 0.9743,12.9541 1.0223,14.0121 C1.0713,15.0681 1.2383,15.7891 1.4843,16.4201 C1.7373,17.0721 2.0763,17.6251 2.6273,18.1771 C3.1793,18.7291 3.7333,19.0681 4.3853,19.3221 C5.0163,19.5671 5.7383,19.7341 6.7933,19.7831 C7.8523,19.8311 8.1903,19.8421 10.8843,19.8421 C13.5783,19.8421 13.9163,19.8311 14.9743,19.7831 C16.0303,19.7341 16.7513,19.5671 17.3823,19.3221 C18.0353,19.0681 18.5883,18.7291 19.1403,18.1771 C19.6923,17.6251 20.0303,17.0721 20.2843,16.4201 C20.5293,15.7891 20.6973,15.0681 20.7453,14.0121 C20.7933,12.9541 20.8053,12.6161 20.8053,9.9211 C20.8053,7.2271 20.7933,6.8891 20.7453,5.8311 C20.6973,4.7741 20.5293,4.0531 20.2843,3.4221 C20.0303,2.7701 19.6923,2.2171 19.1403,1.6651 C18.5883,1.1131 18.0353,0.7741 17.3823,0.5211 C16.7513,0.2751 16.0303,0.1081 14.9743,0.0601 C13.9163,0.0111 13.5783,0.0001 10.8843,0.0001 M10.8843,1.7881 C13.5323,1.7881 13.8473,1.7971 14.8933,1.8451 C15.8603,1.8901 16.3853,2.0511 16.7353,2.1871 C17.1983,2.3671 17.5293,2.5821 17.8763,2.9291 C18.2233,3.2761 18.4383,3.6071 18.6173,4.0701 C18.7543,4.4191 18.9153,4.9451 18.9593,5.9121 C19.0073,6.9581 19.0173,7.2721 19.0173,9.9211 C19.0173,12.5701 19.0073,12.8841 18.9593,13.9301 C18.9153,14.8971 18.7543,15.4231 18.6173,15.7721 C18.4383,16.2351 18.2233,16.5661 17.8763,16.9131 C17.5293,17.2601 17.1983,17.4761 16.7353,17.6551 C16.3853,17.7911 15.8603,17.9531 14.8933,17.9971 C13.8473,18.0451 13.5323,18.0551 10.8843,18.0551 C8.2353,18.0551 7.9203,18.0451 6.8743,17.9971 C5.9073,17.9531 5.3823,17.7911 5.0323,17.6551 C4.5703,17.4761 4.2383,17.2601 3.8923,16.9131 C3.5443,16.5661 3.3293,16.2351 3.1503,15.7721 C3.0143,15.4231 2.8523,14.8971 2.8083,13.9301 C2.7603,12.8841 2.7503,12.5701 2.7503,9.9211 C2.7503,7.2721 2.7603,6.9581 2.8083,5.9121 C2.8523,4.9451 3.0143,4.4191 3.1503,4.0701 C3.3293,3.6071 3.5443,3.2761 3.8923,2.9291 C4.2383,2.5821 4.5703,2.3671 5.0323,2.1871 C5.3823,2.0511 5.9073,1.8901 6.8743,1.8451 C7.9213,1.7971 8.2353,1.7881 10.8843,1.7881" id="Fill-15"></path>
                <path d="M10.8843,13.2286 C9.0573,13.2286 7.5763,11.7476 7.5763,9.9216 C7.5763,8.0946 9.0573,6.6146 10.8843,6.6146 C12.7103,6.6146 14.1913,8.0946 14.1913,9.9216 C14.1913,11.7476 12.7103,13.2286 10.8843,13.2286 M10.8843,4.8266 C8.0703,4.8266 5.7893,7.1076 5.7893,9.9216 C5.7893,12.7346 8.0703,15.0166 10.8843,15.0166 C13.6973,15.0166 15.9793,12.7346 15.9793,9.9216 C15.9793,7.1076 13.6973,4.8266 10.8843,4.8266" id="Fill-17"></path>
                <path d="M17.3706,4.6251 C17.3706,5.2831 16.8376,5.8161 16.1806,5.8161 C15.5216,5.8161 14.9896,5.2831 14.9896,4.6251 C14.9896,3.9681 15.5216,3.4351 16.1806,3.4351 C16.8376,3.4351 17.3706,3.9681 17.3706,4.6251" id="Fill-19"></path>
            </g>
        </g>
    </g>
</svg>