<?xml version="1.0" encoding="UTF-8"?>
<svg width="55px" height="53px" viewBox="0 0 55 53" version="1.1" xmlns="http://www.w3.org/2000/svg" xmlns:xlink="http://www.w3.org/1999/xlink">
    <!-- Generator: Sketch 48.1 (47250) - http://www.bohemiancoding.com/sketch -->
    <title>Mail</title>
    <desc>Created with Sketch.</desc>
    <defs>
        <polygon id="path-1" points="0.008125 0.07375 42.801875 0.07375 42.801875 23.719875 0.008125 23.719875"></polygon>
        <polygon id="path-3" points="54.96125 17.1173617 54.96125 34 0 34 0 17.1173617 0 0.234723497 54.96125 0.234723497"></polygon>
    </defs>
    <g id="Draft-1" stroke="none" stroke-width="1" fill="none" fill-rule="evenodd" transform="translate(-94.000000, -2763.000000)">
        <g id="Mail" transform="translate(94.000000, 2763.000000)">
            <g id="Page-1">
                <g>
                    <g id="Group-3" transform="translate(6.000000, 0.000000)">
                        <mask id="mask-2" fill="white">
                            <use xlink:href="#path-1"></use>
                        </mask>
                        <g id="Clip-2"></g>
                        <path d="M40.301875,22.469875 L40.301875,2.498625 L2.433125,2.573625 L2.508125,22.469875 C2.508125,23.159875 1.948125,23.719875 1.258125,23.719875 C0.568125,23.719875 0.008125,23.159875 0.008125,22.469875 L0.008125,2.498625 C0.008125,1.162375 1.095625,0.073625 2.433125,0.073625 L40.376875,0.073625 C41.714375,0.073625 42.801875,1.162375 42.801875,2.498625 L42.801875,22.469875 C42.801875,23.159875 42.241875,23.719875 41.551875,23.719875 C40.861875,23.719875 40.301875,23.159875 40.301875,22.469875 Z" id="Fill-1" fill="#FFFFFF" mask="url(#mask-2)"></path>
                    </g>
                    <g id="Group-6" transform="translate(0.000000, 19.000000)">
                        <mask id="mask-4" fill="white">
                            <use xlink:href="#path-3"></use>
                        </mask>
                        <g id="Clip-5"></g>
                        <path d="M2.5,2.8055 L2.5,31.5755 L52.46125,31.5005 L52.46125,2.8055 L28.8675,19.2705 C28.0375,19.8505 26.9225,19.8505 26.0925,19.2705 L2.5,2.8055 Z M52.53625,34.0005 L2.42375,34.0005 C1.0875,34.0005 0,32.91175 0,31.5755 L0,2.6605 C0,1.75425 0.49875,0.9305 1.30375,0.5105 C2.1075,0.093 3.06875,0.15425 3.8125,0.673 L27.52375,17.2205 L51.1475,0.673 C51.89125,0.153 52.8525,0.09175 53.6575,0.5105 C54.46125,0.9305 54.96125,1.75425 54.96125,2.6605 L54.96125,31.5755 C54.96125,32.91175 53.87375,34.0005 52.53625,34.0005 Z" id="Fill-4" fill="#FFFFFF" mask="url(#mask-4)"></path>
                    </g>
                    <g id="Group-9" transform="translate(0.000000, 14.000000)" fill="#FFFFFF">
                        <path d="M1.28635714,7.98367143 C0.9225,7.98367143 0.561214286,7.82938571 0.305357143,7.52981429 C-0.153642857,6.98981429 -0.0880714286,6.17852857 0.453214286,5.71824286 L6.63364286,0.4661 C7.17364286,0.00581428571 7.98492857,0.0726714286 8.44521429,0.613957143 C8.9055,1.15395714 8.83992857,1.96524286 8.29864286,2.42552857 L2.11821429,7.67767143 C1.8765,7.88338571 1.58078571,7.98367143 1.28635714,7.98367143" id="Fill-7"></path>
                    </g>
                    <path d="M52.8589014,21.6988374 L47.457957,17.2294839 C46.910845,16.7777401 46.8445678,15.9792797 47.3098079,15.446551 C47.7750481,14.9125569 48.5950663,14.8492874 49.1408788,15.3010313 L54.5418232,19.7703848 C55.0889352,20.223394 55.1552124,21.0218544 54.6912718,21.5533177 C54.4326607,21.8481533 54.0674862,22 53.6997125,22 C53.4021148,22 53.1032175,21.9012997 52.8589014,21.6988374 Z" id="Fill-10" fill="#FFFFFF"></path>
                    <path d="M38.75,12 L16.25,12 C15.56,12 15,11.328 15,10.5 C15,9.672 15.56,9 16.25,9 L38.75,9 C39.44,9 40,9.672 40,10.5 C40,11.328 39.44,12 38.75,12" id="Fill-12" fill="#FFFFFF"></path>
                    <path d="M38.75,18 L16.25,18 C15.56,18 15,17.328 15,16.5 C15,15.672 15.56,15 16.25,15 L38.75,15 C39.44,15 40,15.672 40,16.5 C40,17.328 39.44,18 38.75,18" id="Fill-14" fill="#FFFFFF"></path>
                    <path d="M38.75,23 L16.25,23 C15.56,23 15,22.552 15,22 C15,21.448 15.56,21 16.25,21 L38.75,21 C39.44,21 40,21.448 40,22 C40,22.552 39.44,23 38.75,23" id="Fill-16" fill="#FFFFFF"></path>
                </g>
            </g>
        </g>
    </g>
</svg>