<?xml version="1.0" encoding="UTF-8"?>
<svg width="25px" height="20px" viewBox="0 0 25 20" version="1.1" xmlns="http://www.w3.org/2000/svg" xmlns:xlink="http://www.w3.org/1999/xlink">
    <!-- Generator: Sketch 48.1 (47250) - http://www.bohemiancoding.com/sketch -->
    <title>Group 6</title>
    <desc>Created with Sketch.</desc>
    <defs>
        <polygon id="path-1" points="24.1364 20 0.1214 20 0.1214 0.157576577 24.1364 0.157576577 24.1364 20"></polygon>
    </defs>
    <g id="Draft-1" stroke="none" stroke-width="1" fill="none" fill-rule="evenodd" transform="translate(-1364.000000, -3290.000000)">
        <g id="Page-1" transform="translate(1315.000000, 3289.000000)">
            <g id="Group-6" transform="translate(49.000000, 0.842500)">
                <mask id="mask-2" fill="white">
                    <use xlink:href="#path-1"></use>
                </mask>
                <g id="Clip-5"></g>
                <path d="M21.8804,4.8177 C21.8714,4.8237 21.8584,4.8277 21.8484,4.8327 C21.1864,5.0877 22.5604,9.5137 18.4374,14.7547 C18.4374,14.7547 15.3164,18.9767 9.4834,19.7927 C7.1094,20.1237 3.6324,20.4027 0.1214,17.7567 C0.1214,17.7567 3.6824,18.2147 7.2434,15.5677 C7.2434,15.5677 3.5814,15.2637 2.7154,12.2107 C2.7154,12.2107 4.3964,12.2107 4.7494,12.1597 C4.7494,12.1597 0.8324,10.8357 0.8844,7.0957 C0.8844,7.0957 2.2074,7.6807 2.9444,7.6047 C2.9444,7.6047 -0.3626,5.1367 1.5964,1.0667 C1.5964,1.0667 5.1584,6.0517 11.7234,6.1567 C11.7234,6.1567 11.1604,1.8317 14.9284,0.5087 C14.9284,0.5087 18.1334,-0.8153 20.2704,1.6787 C20.2704,1.6787 22.7624,1.2717 23.3244,0.5087 C23.3244,0.5087 23.1694,2.0397 21.4424,3.1557 C21.4424,3.1557 23.0184,3.1537 24.1364,2.5427 C24.1364,2.5427 22.5634,4.5107 21.8804,4.8177" id="Fill-4" fill="#231F20" mask="url(#mask-2)"></path>
            </g>
        </g>
    </g>
</svg>