<?xml version="1.0" encoding="UTF-8"?>
<svg width="80px" height="28px" viewBox="0 0 80 28" version="1.1" xmlns="http://www.w3.org/2000/svg" xmlns:xlink="http://www.w3.org/1999/xlink">
    <!-- Generator: Sketch 48.1 (47250) - http://www.bohemiancoding.com/sketch -->
    <title>FFW Logo RGB White</title>
    <desc>Created with Sketch.</desc>
    <defs></defs>
    <g id="Draft-2" stroke="none" stroke-width="1" fill="none" fill-rule="evenodd" transform="translate(-90.000000, -36.000000)">
        <g id="FFW-Logo-RGB-White" transform="translate(90.000000, 36.000000)" fill="#FFFFFF">
            <g id="FFW-Logo-RGB-White-01">
                <polygon id="Shape" fill-rule="nonzero" points="72.092517 24.0979592 73.2789116 24.0979592 73.2789116 27.2108844 74.0408163 27.2108844 74.0408163 24.0979592 75.2272109 24.0979592 75.2272109 23.385034 72.092517 23.385034"></polygon>
                <polygon id="Shape" fill-rule="nonzero" points="77.8612245 25.970068 76.8707483 23.385034 75.7496599 23.385034 75.7496599 27.2108844 76.5115646 27.2108844 76.5115646 24.3428571 77.4585034 26.8408163 78.2639456 26.8408163 79.2108844 24.3210884 79.2108844 27.2108844 79.9727891 27.2108844 79.9727891 23.385034 78.8571429 23.385034"></polygon>
                <path d="M73.2843537,0 C71.7795901,0.00570829808 70.4328904,0.935212047 69.8938776,2.34013605 C69.8013605,2.60136054 66.9387755,13.4204082 65.8122449,17.6870748 L60.8816327,0 L53.4312925,0 L48.5006803,17.6544218 L43.8040816,0 L0,0 L0,23.6353741 C0.00299690278,25.6088312 1.60205314,27.2078875 3.5755102,27.2108844 L7.15102041,27.2108844 L7.15102041,17.1428571 L16.5333333,17.1428571 L16.5333333,10.6122449 L7.15102041,10.6122449 L7.15102041,6.53061224 L19.907483,6.53061224 L19.907483,27.2108844 L27.0585034,27.2108844 L27.0585034,17.1428571 L36.462585,17.1428571 L36.462585,10.6122449 L27.0585034,10.6122449 L27.0585034,6.53061224 L38.3020408,6.53061224 L44.3265306,27.2108844 L52.4897959,27.2108844 L57.1319728,11.3306122 L61.752381,27.2108844 L69.9156463,27.2108844 L77.8231293,0 L73.2843537,0 Z" id="Shape" fill-rule="nonzero"></path>
            </g>
        </g>
    </g>
</svg>