<?xml version="1.0" encoding="UTF-8"?>
<svg width="441px" height="370px" viewBox="0 0 441 370" version="1.1" xmlns="http://www.w3.org/2000/svg" xmlns:xlink="http://www.w3.org/1999/xlink">
    <!-- Generator: Sketch 48.2 (47327) - http://www.bohemiancoding.com/sketch -->
    <title>Group 7</title>
    <desc>Created with Sketch.</desc>
    <defs>
        <path d="M0,2.99983501 C0,1.34307188 1.3386566,3.68409364e-13 2.99261653,3.66019683e-13 L417.007383,-2.32158654e-13 C418.66016,-2.34546624e-13 420,1.34413024 420,2.99983501 L420,344.000165 C420,345.656928 418.661343,347 417.007383,347 L2.99261653,347 C1.33984006,347 0,345.65587 0,344.000165 L0,2.99983501 Z" id="path-1"></path>
        <path d="M0,2.99983501 C0,1.34307188 1.3386566,3.68409364e-13 2.99261653,3.66019683e-13 L417.007383,-2.32158654e-13 C418.66016,-2.34546624e-13 420,1.34413024 420,2.99983501 L420,344.000165 C420,345.656928 418.661343,347 417.007383,347 L2.99261653,347 C1.33984006,347 0,345.65587 0,344.000165 L0,2.99983501 Z" id="path-2"></path>
    </defs>
    <g id="Lndr-landing-OOB" stroke="none" stroke-width="1" fill="none" fill-rule="evenodd" transform="translate(-900.000000, -1292.000000)">
        <g id="Group-7" transform="translate(900.000000, 1292.000000)">
            <g id="Group-3">
                <g id="Frontpage" opacity="0.200000003" transform="translate(21.000000, 23.000000)">
                    <g id="Group-12">
                        <g>
                            <g id="Rectangle-7-Copy">
                                <use fill="#FFFFFF" fill-rule="evenodd" xlink:href="#path-1"></use>
                                <path stroke="#008CFF" stroke-width="1" d="M0.5,2.99983501 L0.5,344.000165 C0.5,345.380389 1.61664436,346.5 2.99261653,346.5 L417.007383,346.5 C418.384492,346.5 419.5,345.381495 419.5,344.000165 L419.5,2.99983501 C419.5,1.61961059 418.383356,0.5 417.007383,0.5 L2.99261653,0.5 C1.61550839,0.5 0.5,1.61850464 0.5,2.99983501 Z"></path>
                            </g>
                            <ellipse id="Oval-2" fill="#083441" opacity="0.2" cx="12.6" cy="12.6181818" rx="2.1" ry="2.1030303"></ellipse>
                            <ellipse id="Oval-2" fill="#083441" opacity="0.2" cx="21" cy="12.6181818" rx="2.1" ry="2.1030303"></ellipse>
                            <ellipse id="Oval-2" fill="#083441" opacity="0.2" cx="29.4" cy="12.6181818" rx="2.1" ry="2.1030303"></ellipse>
                        </g>
                    </g>
                    <text id="Lndr" font-family="MarkPro, Mark Pro" font-size="7" font-weight="normal" fill="#008CFF">
                        <tspan x="46.7425" y="68.7454545">Lndr</tspan>
                    </text>
                    <g id="featured" transform="translate(33.600000, 98.842424)">
                        <g id="Group">
                            <rect id="Rectangle-7" fill-opacity="0.0559612772" fill="#0080EA" x="0" y="0" width="231" height="210.30303"></rect>
                            <rect id="Rectangle-7-Copy-3" fill-opacity="0.0559612772" fill="#0080EA" x="243.296226" y="0" width="111.3" height="98.9661319"></rect>
                            <rect id="Rectangle-8-Copy-4" fill="#008CFF" x="31.5" y="111.460606" width="77.7" height="8.41212121"></rect>
                            <rect id="Rectangle-8-Copy" fill="#008CFF" x="31.5" y="130.387879" width="92.0099414" height="2.1030303"></rect>
                            <rect id="Rectangle-8-Copy-2" fill="#008CFF" x="31.5" y="140.90303" width="100.832813" height="2.1030303"></rect>
                            <rect id="Rectangle-8-Copy-3" fill="#008CFF" x="31.5" y="151.418182" width="68.0621484" height="2.1030303"></rect>
                            <rect id="Rectangle-9" fill="#008CFF" x="31.5" y="168.242424" width="58.8" height="14.7212121" rx="7.36060606"></rect>
                            <rect id="Rectangle-8-Copy-4" fill="#008CFF" x="258.3" y="39.9575758" width="50.4" height="4.20606061"></rect>
                            <rect id="Rectangle-8-Copy" fill="#008CFF" x="258.3" y="50.4727273" width="67.2" height="2.1030303"></rect>
                            <rect id="Rectangle-8-Copy-2" fill="#008CFF" x="258.3" y="58.8848485" width="58.8" height="2.1030303"></rect>
                            <rect id="Rectangle-9" fill="#008CFF" x="258.3" y="69.4" width="42" height="14.7212121" rx="7.36060606"></rect>
                            <g id="Group-2" transform="translate(242.500000, 110.357576)">
                                <rect id="Rectangle-7-Copy-2" fill-opacity="0.0559612772" fill="#0080EA" x="0.796226415" y="0.979322638" width="111.3" height="98.9661319"></rect>
                                <rect id="Rectangle-8-Copy-4" fill="#008CFF" x="15.8" y="41.0606061" width="50.4" height="4.20606061"></rect>
                                <rect id="Rectangle-8-Copy" fill="#008CFF" x="15.8" y="51.5757576" width="67.2" height="2.1030303"></rect>
                                <rect id="Rectangle-8-Copy-2" fill="#008CFF" x="15.8" y="59.9878788" width="58.8" height="2.1030303"></rect>
                                <rect id="Rectangle-9" fill="#008CFF" x="15.8" y="70.5030303" width="42" height="14.7212121" rx="7.36060606"></rect>
                            </g>
                        </g>
                    </g>
                    <g id="Group-16-Copy" transform="translate(291.900000, 86.224242)">
                        <g id="Group-11"></g>
                    </g>
                    <g id="Group-16-Copy-2" transform="translate(291.900000, 197.684848)">
                        <g id="Group-11"></g>
                    </g>
                    <g id="Group-5" opacity="0.600000024" transform="translate(369.600000, 58.884848)" stroke="#008CFF" stroke-linecap="square">
                        <path d="M1.05,3.15454545 L17.85,3.15454545" id="Line"></path>
                        <path d="M1.05,7.36060606 L17.85,7.36060606" id="Line"></path>
                        <path d="M1.05,11.5666667 L17.85,11.5666667" id="Line"></path>
                    </g>
                </g>
                <g id="Frontpage">
                    <g id="Group-12">
                        <g>
                            <g id="Rectangle-7-Copy">
                                <use fill="#FFFFFF" fill-rule="evenodd" xlink:href="#path-2"></use>
                                <path stroke="#008CFF" stroke-width="1" d="M0.5,2.99983501 L0.5,344.000165 C0.5,345.380389 1.61664436,346.5 2.99261653,346.5 L417.007383,346.5 C418.384492,346.5 419.5,345.381495 419.5,344.000165 L419.5,2.99983501 C419.5,1.61961059 418.383356,0.5 417.007383,0.5 L2.99261653,0.5 C1.61550839,0.5 0.5,1.61850464 0.5,2.99983501 Z"></path>
                            </g>
                            <rect id="Rectangle-7" stroke="#008CFF" x="1.5" y="23.6333333" width="417" height="1"></rect>
                            <ellipse id="Oval-2" fill="#008CFF" opacity="0.2" cx="12.6" cy="12.6181818" rx="2.1" ry="2.1030303"></ellipse>
                            <ellipse id="Oval-2" fill="#008CFF" opacity="0.2" cx="21" cy="12.6181818" rx="2.1" ry="2.1030303"></ellipse>
                            <ellipse id="Oval-2" fill="#008CFF" opacity="0.2" cx="29.4" cy="12.6181818" rx="2.1" ry="2.1030303"></ellipse>
                        </g>
                    </g>
                    <g id="featured" transform="translate(33.600000, 98.842424)">
                        <g id="Group">
                            <rect id="Rectangle-7" fill-opacity="0.0559612772" fill="#0080EA" x="0" y="0" width="231" height="210.30303"></rect>
                            <rect id="Rectangle-7-Copy-3" fill-opacity="0.0559612772" fill="#0080EA" x="243.296226" y="0" width="111.3" height="98.9661319"></rect>
                            <rect id="Rectangle-8-Copy-4" fill="#008CFF" x="31.5" y="111.460606" width="77.7" height="9"></rect>
                            <rect id="Rectangle-8-Copy" fill="#008CFF" x="31.5" y="130.387879" width="92.0099414" height="2"></rect>
                            <rect id="Rectangle-8-Copy-2" fill="#008CFF" x="31.5" y="140.90303" width="100.832813" height="2"></rect>
                            <rect id="Rectangle-8-Copy-3" fill="#008CFF" x="31.5" y="151.418182" width="68.0621484" height="2"></rect>
                            <rect id="Rectangle-9" fill="#008CFF" x="31.5" y="168.242424" width="58.8" height="14" rx="7"></rect>
                            <rect id="Rectangle-8-Copy-4" fill="#008CFF" x="258.3" y="39.9575758" width="50.4" height="4"></rect>
                            <rect id="Rectangle-8-Copy" fill="#008CFF" x="258.3" y="50.4727273" width="67.2" height="2"></rect>
                            <rect id="Rectangle-8-Copy-2" fill="#008CFF" x="258.3" y="58.8848485" width="58.8" height="2"></rect>
                            <rect id="Rectangle-9" fill="#008CFF" x="258.3" y="69.4" width="42" height="14" rx="7"></rect>
                            <g id="Group-2" transform="translate(242.500000, 110.357576)">
                                <rect id="Rectangle-7-Copy-2" fill-opacity="0.0559612772" fill="#0080EA" x="0.796226415" y="0.979322638" width="111.3" height="98.9661319"></rect>
                                <rect id="Rectangle-8-Copy-4" fill="#008CFF" x="15.8" y="41.0606061" width="50.4" height="4"></rect>
                                <rect id="Rectangle-8-Copy" fill="#008CFF" x="15.8" y="51.5757576" width="67.2" height="2"></rect>
                                <rect id="Rectangle-8-Copy-2" fill="#008CFF" x="15.8" y="59.9878788" width="58.8" height="2"></rect>
                                <rect id="Rectangle-9" fill="#008CFF" x="15.8" y="70.5030303" width="42" height="14" rx="7"></rect>
                            </g>
                        </g>
                    </g>
                    <g id="Group-16-Copy" transform="translate(291.900000, 86.224242)">
                        <g id="Group-11"></g>
                    </g>
                    <g id="Group-16-Copy-2" transform="translate(291.900000, 197.684848)">
                        <g id="Group-11"></g>
                    </g>
                    <g id="Group-5" opacity="0.600000024" transform="translate(369.600000, 58.884848)" stroke="#008CFF" stroke-linecap="square">
                        <path d="M1.05,3.15454545 L17.85,3.15454545" id="Line"></path>
                        <path d="M1.05,7.36060606 L17.85,7.36060606" id="Line"></path>
                        <path d="M1.05,11.5666667 L17.85,11.5666667" id="Line"></path>
                    </g>
                </g>
            </g>
            <g id="Group-6" opacity="0.600000024" transform="translate(38.000000, 56.000000)" fill="#168BEB">
                <path d="M12.8312656,17 L16,17 L10.1546119,1.12081174 C10.1546119,1.12081174 10.1516697,1.11239026 10.1450498,1.09484551 C9.88907959,0.4323559 9.22561663,-0.00556096261 8.48565684,5.33561374e-05 C7.74569705,0.00636946473 7.08958957,0.454813175 6.84538812,1.12081174 L6.84538812,1.12081174 L1,17 L4.05178247,17 L5.13156475,13.9540917 L11.7514834,13.9540917 L12.8312656,17 Z" id="Fill-10-Copy"></path>
                <rect id="Rectangle" x="0" y="20" width="16" height="1"></rect>
            </g>
        </g>
    </g>
</svg>