<?xml version="1.0" encoding="UTF-8"?>
<svg width="276px" height="391px" viewBox="0 0 276 391" version="1.1" xmlns="http://www.w3.org/2000/svg" xmlns:xlink="http://www.w3.org/1999/xlink">
    <!-- Generator: Sketch 48.2 (47327) - http://www.bohemiancoding.com/sketch -->
    <title>Page Lndr illustration</title>
    <desc>Created with Sketch.</desc>
    <defs>
        <rect id="path-1" x="0" y="0" width="274" height="389" rx="8"></rect>
    </defs>
    <g id="Lndr-landing-OOB" stroke="none" stroke-width="1" fill="none" fill-rule="evenodd" transform="translate(-662.000000, -323.000000)">
        <g id="Page-Lndr-illustration" transform="translate(663.000000, 324.000000)">
            <g id="Group-4" transform="translate(58.000000, 42.000000)" fill="#168BEB">
                <rect id="Rectangle-6-Copy-3" x="23.6887973" y="0" width="113.000085" height="6.20291524"></rect>
                <rect id="Rectangle-6-Copy-6" x="35.533196" y="12.4058305" width="88.8764716" height="6.20291524"></rect>
                <rect id="Rectangle-6-Copy-7" x="0" y="35.149853" width="161.873448" height="1.33352575"></rect>
                <rect id="Rectangle-6-Copy-8" x="33.5591295" y="43.4204067" width="94.7551893" height="1.33352575"></rect>
            </g>
            <rect id="Rectangle-2" fill="#168BEB" x="114" y="111" width="47" height="13"></rect>
            <g id="Group-2" transform="translate(38.000000, 185.000000)" fill="#168BEB">
                <rect id="Rectangle-7-Copy-2" x="0" y="0" width="96.3833412" height="49.7355715"></rect>
                <g id="Group-3" transform="translate(120.479177, 9.161816)">
                    <rect id="Rectangle-6-Copy-12" x="0" y="0" width="65.7972964" height="6.08804644"></rect>
                    <rect id="Rectangle-6-Copy-13" x="0" y="17.0148008" width="78.871732" height="1.30883083"></rect>
                    <rect id="Rectangle-6-Copy-14" x="0" y="24.8677858" width="70.9845588" height="1.30883083"></rect>
                    <rect id="Rectangle-6-Copy-15" x="0" y="33.4412887" width="78.871732" height="1.30883083"></rect>
                </g>
            </g>
            <g id="Group" transform="translate(46.000000, 296.000000)" fill="#168BEB">
                <rect id="Rectangle-7-Copy-6" x="104.174632" y="0" width="96.5520979" height="49.7355715"></rect>
                <g id="Group-3-Copy" transform="translate(0.000000, 9.161816)">
                    <rect id="Rectangle-6-Copy-12" x="0" y="0" width="65.9125003" height="6.08804644"></rect>
                    <rect id="Rectangle-6-Copy-13" x="0" y="17.0148008" width="79.0098278" height="1.30883083"></rect>
                    <rect id="Rectangle-6-Copy-14" x="0" y="24.8677858" width="71.108845" height="1.30883083"></rect>
                    <rect id="Rectangle-6-Copy-15" x="0" y="33.4412887" width="79.0098278" height="1.30883083"></rect>
                </g>
            </g>
            <path d="M41.6315789,152.5 L232.573261,152.5" id="Line" stroke="#E4E4E4" stroke-linecap="square"></path>
            <path d="M41.6315789,261.5 L232.573261,261.5" id="Line-Copy" stroke="#E4E4E4" stroke-linecap="square"></path>
        </g>
    </g>
</svg>
