<?xml version="1.0" encoding="UTF-8"?>
<svg width="90px" height="26px" viewBox="0 0 90 26" version="1.1" xmlns="http://www.w3.org/2000/svg" xmlns:xlink="http://www.w3.org/1999/xlink">
    <!-- Generator: Sketch 49 (51002) - http://www.bohemiancoding.com/sketch -->
    <title>Group Copy</title>
    <desc>Created with Sketch.</desc>
    <defs></defs>
    <g id="Page-1" stroke="none" stroke-width="1" fill="none" fill-rule="evenodd">
        <g id="Commercial" transform="translate(-175.000000, -6861.000000)" fill="#FFFFFF">
            <g id="Group-Copy" transform="translate(175.000000, 6861.000000)">
                <g id="Group-9">
                    <path d="M5.58169924,2.89018704 C8.31226572,2.89018704 10.4620774,5.03999871 10.4620774,8.02528222 C10.4620774,11.0105657 8.31226572,13.1603774 5.58169924,13.1603774 C4.19603863,13.1603774 3.1975479,12.5999999 2.52509496,11.7441508 L2.52509496,15.2830195 L0.395660651,15.2830195 L0.395660651,3.14490406 L2.52509496,3.14490406 L2.52509496,4.30641368 C3.1975479,3.45056449 4.19603863,2.89018704 5.58169924,2.89018704 Z M5.32698221,4.89735718 C3.56434042,4.89735718 2.38245343,6.24226306 2.38245343,8.02528222 C2.38245343,9.80830138 3.56434042,11.1532073 5.32698221,11.1532073 C7.16094478,11.1532073 8.271511,9.73698061 8.271511,8.02528222 C8.271511,6.31358383 7.16094478,4.89735718 5.32698221,4.89735718 Z" id="Combined-Shape"></path>
                    <path d="M18.0424539,2.89018704 C18.6945295,2.89018704 19.1937749,2.97169648 19.6828315,3.16528142 L19.1733975,5.27433837 C18.7250955,5.03999871 18.07302,4.91773454 17.5533972,4.91773454 C16.1983027,4.91773454 15.230378,5.87547055 15.230378,7.53622553 L15.230378,12.9056604 L13.1009437,12.9056604 L13.1009437,3.14490406 L15.2100006,3.14490406 L15.2100006,4.2452816 C15.8518875,3.31811164 16.8503782,2.89018704 18.0424539,2.89018704 Z" id="Path"></path>
                    <path d="M26.3971708,2.89018704 C29.4130204,2.89018704 31.6545302,5.1011308 31.6545302,8.02528222 C31.6545302,10.9494336 29.4130204,13.1603774 26.3971708,13.1603774 C23.3813213,13.1603774 21.1500002,10.9494336 21.1500002,8.02528222 C21.1500002,5.1011308 23.3813213,2.89018704 26.3971708,2.89018704 Z M26.3971708,4.89735718 C24.6549064,4.89735718 23.3405666,6.18113097 23.3405666,8.02528222 C23.3405666,9.86943346 24.6549064,11.1532073 26.3971708,11.1532073 C28.1394353,11.1532073 29.4639638,9.86943346 29.4639638,8.02528222 C29.4639638,6.18113097 28.1394353,4.89735718 26.3971708,4.89735718 Z" id="Combined-Shape"></path>
                    <path d="M39.150001,2.89018704 C40.5356616,2.89018704 41.544341,3.46075317 42.2167939,4.32679105 L42.2167939,0.950940991 L44.3462282,0.950940991 L44.3462282,12.9056604 L42.2167939,12.9056604 L42.2167939,11.7339621 C41.544341,12.5999999 40.5356616,13.1603774 39.150001,13.1603774 C36.4194345,13.1603774 34.2696228,11.0105657 34.2696228,8.02528222 C34.2696228,5.03999871 36.4194345,2.89018704 39.150001,2.89018704 Z M39.404718,4.89735718 C37.5707554,4.89735718 36.4601892,6.31358383 36.4601892,8.02528222 C36.4601892,9.73698061 37.5707554,11.1532073 39.404718,11.1532073 C41.1673598,11.1532073 42.3492468,9.80830138 42.3492468,8.02528222 C42.3492468,6.24226306 41.1673598,4.89735718 39.404718,4.89735718 Z" id="Combined-Shape"></path>
                    <path d="M56.973398,3.14490406 L56.973398,8.76905593 C56.973398,11.8766036 54.7318882,13.1603774 52.4496236,13.1603774 C50.1571704,13.1603774 47.9258493,11.8766036 47.9258493,8.76905593 L47.9258493,3.14490406 L50.0654723,3.14490406 L50.0654723,8.57547099 C50.0654723,10.460377 51.1149064,11.1532073 52.4496236,11.1532073 C53.7843408,11.1532073 54.833775,10.460377 54.833775,8.57547099 L54.833775,3.14490406 L56.973398,3.14490406 Z" id="Path"></path>
                    <path d="M64.9850953,2.89018704 C66.4420767,2.89018704 67.7666052,3.41999845 68.6326431,4.44905522 L67.2673599,5.90603659 C66.5847182,5.26414969 65.8613219,4.89735718 64.9239633,4.89735718 C63.2835856,4.89735718 62.0405666,6.18113097 62.0405666,8.02528222 C62.0405666,9.86943346 63.2835856,11.1532073 64.9239633,11.1532073 C65.8613219,11.1532073 66.6967937,10.715094 67.3183033,10.1343392 L68.6326431,11.6015092 C67.7462279,12.630566 66.4420767,13.1603774 64.9850953,13.1603774 C61.8775477,13.1603774 59.8500002,10.9494336 59.8500002,8.02528222 C59.8500002,5.1011308 61.8775477,2.89018704 64.9850953,2.89018704 Z" id="Path"></path>
                    <path d="M78.3492466,3.14490406 L78.3492466,5.08075343 L74.6100008,5.08075343 L74.6100008,9.32943338 C74.6100008,10.6437732 75.3028311,11.1532073 76.1586803,11.1532073 C76.8209445,11.1532073 77.5443409,10.8577355 78.1250957,10.490943 L78.9707562,12.1924527 C78.1862278,12.7222641 77.1979257,13.1603774 75.975284,13.1603774 C73.7643402,13.1603774 72.4703778,11.9683017 72.4703778,9.3701881 L72.4703778,5.08075343 L70.5243397,5.08075343 L70.5243397,3.14490406 L72.4703778,3.14490406 L72.4703778,0.190186595 L74.6100008,0.190186595 L74.6100008,3.14490406 L78.3492466,3.14490406 Z" id="Path"></path>
                    <path d="M89.5262279,3.92943249 L88.6092466,5.59018748 C88.0183032,5.22339497 86.8058501,4.75471565 85.5933971,4.75471565 C84.4318875,4.75471565 83.7492458,5.22339497 83.7492458,5.91622527 C83.7492458,6.59886689 84.4624535,6.79245183 85.3590574,6.92490468 L86.3677368,7.07773489 C88.4971712,7.38339532 89.7605676,8.29018792 89.7605676,9.96113159 C89.7605676,11.8358489 88.1303786,13.1501887 85.3183027,13.1501887 C84.3096233,13.1501887 82.5571702,12.9566038 81.1307549,11.896981 L82.1190569,10.2973581 C82.8220759,10.8373582 83.7492458,11.2958488 85.3386801,11.2958488 C86.7956614,11.2958488 87.5598125,10.8373582 87.5598125,10.1037731 C87.5598125,9.55358436 87.0300011,9.18679184 85.8684915,9.02377295 L84.8496234,8.8913201 C82.689623,8.59584835 81.5383021,7.59735762 81.5383021,6.02830076 C81.5383021,4.09245139 83.0869816,2.90037572 85.5730197,2.90037572 C87.1013219,2.90037572 88.5175485,3.27735691 89.5262279,3.92943249 Z" id="Path"></path>
                </g>
                <path d="M16.0439302,20.7620646 C17.0084058,20.7620646 17.7353613,21.5501995 17.7353613,22.5974472 C17.7353613,23.644695 17.0084058,24.4328299 16.047529,24.4328299 C15.5652912,24.4328299 15.2306038,24.2384952 15.0038801,23.9577897 L15.0038801,24.3428601 L14.0861887,24.3428601 L14.0861887,19.1606033 L15.021874,19.1606033 L15.021874,21.2191109 C15.2485977,20.9456029 15.5760876,20.7620646 16.0439302,20.7620646 Z M15.8711883,21.6365704 C15.3385675,21.6365704 14.9750897,22.0468324 14.9750897,22.5974472 C14.9750897,23.148062 15.3385675,23.558324 15.8711883,23.558324 C16.4254019,23.558324 16.7708857,23.1300681 16.7708857,22.5974472 C16.7708857,22.0648264 16.4254019,21.6365704 15.8711883,21.6365704 Z M22.035914,20.8556331 L19.369211,25.7967711 L18.3399572,25.7967711 L19.5599468,23.6015095 L18.0556528,20.8556331 L19.1208945,20.8556331 L20.0781725,22.6478303 L21.0066602,20.8556331 L22.035914,20.8556331 Z M27.952323,21.3774576 L27.952323,22.3023465 L25.4259728,22.3023465 L25.4259728,24.3428601 L24.4219105,24.3428601 L24.4219105,19.3045548 L28.1214661,19.3045548 L28.1214661,20.2294437 L25.4259728,20.2294437 L25.4259728,21.3774576 L27.952323,21.3774576 Z M32.5659704,21.3774576 L32.5659704,22.3023465 L30.0396201,22.3023465 L30.0396201,24.3428601 L29.0355579,24.3428601 L29.0355579,19.3045548 L32.7351135,19.3045548 L32.7351135,20.2294437 L30.0396201,20.2294437 L30.0396201,21.3774576 L32.5659704,21.3774576 Z M40.8,19.3045548 L39.295706,24.3428601 L38.0793151,24.3428601 L36.9996783,20.7440706 L35.9200414,24.3428601 L34.7036506,24.3428601 L33.1993566,19.3045548 L34.2430055,19.3045548 L35.3262412,23.1696548 L36.4526623,19.3045548 L37.5646882,19.3045548 L38.6911094,23.1696548 L39.774345,19.3045548 L40.8,19.3045548 Z" id="by-FFW"></path>
                <rect id="Rectangle" x="0" y="21.8603774" width="10.3245283" height="1"></rect>
            </g>
        </g>
    </g>
</svg>