<?xml version="1.0" encoding="UTF-8"?>
<svg width="200px" height="229px" viewBox="0 0 200 229" version="1.1" xmlns="http://www.w3.org/2000/svg" xmlns:xlink="http://www.w3.org/1999/xlink">
    <!-- Generator: Sketch 48.2 (47327) - http://www.bohemiancoding.com/sketch -->
    <title>Group 6</title>
    <desc>Created with Sketch.</desc>
    <defs>
        <rect id="path-1" x="8" y="25" width="82" height="20" rx="10"></rect>
    </defs>
    <g id="Lndr-custom-designs" stroke="none" stroke-width="1" fill="none" fill-rule="evenodd" transform="translate(-1127.000000, -632.000000)">
        <g id="Group-6" transform="translate(1127.000000, 632.000000)">
            <g id="Group-Copy-3" opacity="0.2">
                <g id="1.03-Header,-2-column-solid,-big-left">
                    <rect id="Rectangle-7" stroke="#168BEB" x="1.5" y="24.5" width="197" height="1"></rect>
                    <rect id="Rectangle-7-Copy" stroke="#168BEB" x="0.5" y="0.5" width="199" height="228" rx="3"></rect>
                    <circle id="Oval-2" fill="#168BEB" cx="6" cy="6" r="1"></circle>
                    <circle id="Oval-2" fill="#168BEB" cx="10" cy="6" r="1"></circle>
                    <circle id="Oval-2" fill="#168BEB" cx="14" cy="6" r="1"></circle>
                </g>
            </g>
            <rect id="Rectangle-5-Copy" stroke="#D0E8FB" x="25.5" y="6.5" width="164" height="12" rx="3"></rect>
            <text id="lndr.co-copy" font-family="Montserrat-Regular, Montserrat" font-size="7" font-weight="normal" fill="#168BEB">
                <tspan x="30.0055" y="15">lndr.co</tspan>
            </text>
            <g id="noun_1509965_cc" transform="translate(51.000000, 87.000000)">
                <g id="Group">
                    <g transform="translate(17.600000, 0.161290)" fill="#168BEB" fill-rule="nonzero">
                        <path d="M2.60683327,43 C2.61913115,43.2883097 2.62220562,43.518344 2.6345035,43.7453111 C2.64680139,43.9661441 2.66832268,44.1839099 2.68984397,44.4170113 C3.06185489,44.6838511 3.49228075,44.8586772 3.88581297,45.1439197 C3.8089512,45.1837923 3.75975968,45.2175307 3.70749368,45.2390005 C3.42771687,45.3463499 3.14486559,45.4506321 2.86201432,45.5579814 C2.5207481,45.6898678 2.59146092,45.6591965 2.51152469,45.9812445 C2.4377374,46.2818227 2.3854714,46.5885351 2.32090752,46.8921804 C2.31168411,46.9289859 2.29938623,46.9657914 2.29016282,46.9933955 C2.21330106,47.0179325 2.18563082,46.9688585 2.15796059,46.932053 C1.96119448,46.6897502 1.75520496,46.4566488 1.57381121,46.2051446 C1.43238557,46.0057815 1.27558758,45.9444391 1.03577888,45.9904459 C0.749853136,46.0456541 0.457778446,46.0579226 0.168778226,46.0885939 C0.119586699,46.0947281 0.0703951724,46.0885939 0.0273525865,46.0885939 C-0.0249134106,46.0303185 0.008905764,45.9873788 0.0365759978,45.9475062 C0.205671871,45.6868006 0.377842215,45.4260951 0.546938088,45.1653896 C0.602278555,45.0825772 0.651470082,44.9966977 0.703736079,44.9077511 C0.553087029,44.4660853 0.313278336,44.0673592 0.150331403,43.6103577 C0.405512448,43.6348947 0.617650907,43.7207741 0.835938307,43.7729153 C1.06037465,43.8250564 1.28173652,43.8925331 1.50924733,43.9538756 C1.88740719,43.6655659 2.19177976,43.3189809 2.60683327,43 Z" id="Shape"></path>
                        <path d="M34.6655004,43.3481421 C34.9062365,43.588303 33.8087631,44.9303784 34.0565797,45.2976833 C34.3043963,45.6649881 36.0107904,45.2976833 36.0107904,45.6649881 C36.1311585,46.032293 34.4247643,46.6397587 34.4247643,47.0070636 C34.4247643,47.3743684 36.0107904,47.9818341 36.0107904,48.349139 C35.8904224,48.7164438 34.1840282,48.349139 34.0565797,48.7164438 C33.9291312,49.0837487 35.033685,50.2986801 34.6655004,50.665985 C34.4247643,50.8920187 33.0794743,49.7971677 32.7183702,50.0443922 C32.3501856,50.284553 32.7183702,51.9939333 32.3501856,51.9939333 C31.9820009,52.1140137 31.3730802,50.411697 31.011976,50.411697 C30.6437914,50.411697 30.0348707,51.9939333 29.6666861,51.9939333 C29.2985014,51.8738529 29.6666861,50.1715361 29.2985014,50.0443922 C28.9373973,49.9243117 27.7124754,51.0191627 27.3513712,50.6518579 C27.1035546,50.411697 28.201028,49.0696216 27.9602919,48.7023167 C27.7195558,48.3350119 26.0060812,48.7023167 26.0060812,48.3350119 C25.8857132,47.967707 27.5921073,47.3602413 27.5921073,46.9929364 C27.5921073,46.6256316 26.0060812,46.0181659 26.0060812,45.650861 C26.1264493,45.2835562 27.8328434,45.650861 27.9602919,45.2835562 C28.08066,44.9162513 26.9831866,43.7013199 27.3513712,43.334015 C27.5921073,43.1079813 28.9373973,44.2028323 29.2985014,43.9556078 C29.6666861,43.715447 29.2985014,42.0060667 29.6666861,42.0060667 C30.0348707,41.8859863 30.6437914,43.588303 31.011976,43.588303 C31.3801607,43.588303 31.9890814,42.0060667 32.357266,42.0060667 C32.7254507,42.1261471 32.357266,43.8284639 32.7254507,43.9556078 C33.0794743,44.2028323 34.4247643,43.1079813 34.6655004,43.3481421 Z" id="Shape"></path>
                        <path d="M43.730181,19.2691743 C43.7782471,19.3171256 43.5591221,19.5850885 43.608602,19.6584258 C43.6580818,19.731763 43.9987858,19.6584258 43.9987858,19.731763 C44.0228189,19.8051003 43.6821149,19.9263888 43.6821149,19.999726 C43.6821149,20.0730633 43.9987858,20.1943518 43.9987858,20.267689 C43.9747527,20.3410262 43.6340487,20.267689 43.608602,20.3410262 C43.5831552,20.4143635 43.8036939,20.6569405 43.730181,20.7302777 C43.6821149,20.7754083 43.41351,20.556807 43.3414109,20.6061686 C43.267898,20.6541198 43.3414109,20.9954201 43.267898,20.9954201 C43.1943851,21.0193957 43.072806,20.6795058 43.0007069,20.6795058 C42.927194,20.6795058 42.8056149,20.9954201 42.732102,20.9954201 C42.6585891,20.9714444 42.732102,20.6315545 42.6585891,20.6061686 C42.58649,20.5821929 42.3419182,20.8007943 42.269819,20.7274571 C42.2203392,20.6795058 42.4394642,20.4115428 42.391398,20.3382056 C42.3433319,20.2648683 42.0012142,20.3382056 42.0012142,20.2648683 C41.9771811,20.1915311 42.3178851,20.0702426 42.3178851,19.9969053 C42.3178851,19.9235681 42.0012142,19.8022796 42.0012142,19.7289424 C42.0252473,19.6556051 42.3659513,19.7289424 42.391398,19.6556051 C42.4154311,19.5822679 42.1963061,19.3396909 42.269819,19.2663536 C42.3178851,19.221223 42.58649,19.4398244 42.6585891,19.3904628 C42.732102,19.3425115 42.6585891,19.0012113 42.732102,19.0012113 C42.8056149,18.9772357 42.927194,19.3171256 43.0007069,19.3171256 C43.0742198,19.3171256 43.1957988,19.0012113 43.2693117,19.0012113 C43.3428246,19.0251869 43.2693117,19.3650768 43.3428246,19.3904628 C43.41351,19.4398244 43.6821149,19.221223 43.730181,19.2691743 Z" id="Shape-Copy-2"></path>
                        <path d="M45.8636309,0.134360071 C45.8876235,0.158295256 45.7782458,0.292050702 45.802944,0.328657456 C45.8276422,0.36526421 45.9977068,0.328657456 45.9977068,0.36526421 C46.009703,0.401870963 45.8396384,0.462412902 45.8396384,0.499019656 C45.8396384,0.535626409 45.9977068,0.596168348 45.9977068,0.632775101 C45.9857105,0.669381855 45.8156459,0.632775101 45.802944,0.669381855 C45.7902421,0.705988609 45.9003254,0.827072486 45.8636309,0.86367924 C45.8396384,0.886206473 45.7055626,0.777090188 45.6695738,0.801729349 C45.6328794,0.825664534 45.6695738,0.996026734 45.6328794,0.996026734 C45.596185,1.00799433 45.535498,0.838336103 45.4995092,0.838336103 C45.4628148,0.838336103 45.4021279,0.996026734 45.3654334,0.996026734 C45.328739,0.984059141 45.3654334,0.814400918 45.328739,0.801729349 C45.2927502,0.789761756 45.1706707,0.898878041 45.1346819,0.862271288 C45.1099837,0.838336103 45.2193614,0.704580657 45.1953688,0.667973903 C45.1713763,0.631367149 45.0006061,0.667973903 45.0006061,0.631367149 C44.9886098,0.594760396 45.1586744,0.534218457 45.1586744,0.497611703 C45.1586744,0.46100495 45.0006061,0.400463011 45.0006061,0.363856258 C45.0126023,0.327249504 45.1826669,0.363856258 45.1953688,0.327249504 C45.2073651,0.29064275 45.0979875,0.169558873 45.1346819,0.132952119 C45.1586744,0.110424886 45.2927502,0.219541171 45.328739,0.19490201 C45.3654334,0.170966825 45.328739,0.000604625339 45.3654334,0.000604625339 C45.4021279,-0.0113629672 45.4628148,0.158295256 45.4995092,0.158295256 C45.5362037,0.158295256 45.5968906,0.000604625339 45.6335851,0.000604625339 C45.6702795,0.0125722179 45.6335851,0.182230441 45.6702795,0.19490201 C45.7055626,0.219541171 45.8396384,0.110424886 45.8636309,0.134360071 Z" id="Shape-Copy-2"></path>
                        <path d="M16.8636309,13.1343601 C16.8876235,13.1582953 16.7782458,13.2920507 16.802944,13.3286575 C16.8276422,13.3652642 16.9977068,13.3286575 16.9977068,13.3652642 C17.009703,13.401871 16.8396384,13.4624129 16.8396384,13.4990197 C16.8396384,13.5356264 16.9977068,13.5961683 16.9977068,13.6327751 C16.9857105,13.6693819 16.8156459,13.6327751 16.802944,13.6693819 C16.7902421,13.7059886 16.9003254,13.8270725 16.8636309,13.8636792 C16.8396384,13.8862065 16.7055626,13.7770902 16.6695738,13.8017293 C16.6328794,13.8256645 16.6695738,13.9960267 16.6328794,13.9960267 C16.596185,14.0079943 16.535498,13.8383361 16.4995092,13.8383361 C16.4628148,13.8383361 16.4021279,13.9960267 16.3654334,13.9960267 C16.328739,13.9840591 16.3654334,13.8144009 16.328739,13.8017293 C16.2927502,13.7897618 16.1706707,13.898878 16.1346819,13.8622713 C16.1099837,13.8383361 16.2193614,13.7045807 16.1953688,13.6679739 C16.1713763,13.6313671 16.0006061,13.6679739 16.0006061,13.6313671 C15.9886098,13.5947604 16.1586744,13.5342185 16.1586744,13.4976117 C16.1586744,13.4610049 16.0006061,13.400463 16.0006061,13.3638563 C16.0126023,13.3272495 16.1826669,13.3638563 16.1953688,13.3272495 C16.2073651,13.2906428 16.0979875,13.1695589 16.1346819,13.1329521 C16.1586744,13.1104249 16.2927502,13.2195412 16.328739,13.194902 C16.3654334,13.1709668 16.328739,13.0006046 16.3654334,13.0006046 C16.4021279,12.988637 16.4628148,13.1582953 16.4995092,13.1582953 C16.5362037,13.1582953 16.5968906,13.0006046 16.6335851,13.0006046 C16.6702795,13.0125722 16.6335851,13.1822304 16.6702795,13.194902 C16.7055626,13.2195412 16.8396384,13.1104249 16.8636309,13.1343601 Z" id="Shape-Copy-12"></path>
                        <path d="M0.863630946,20.1343601 C0.887623461,20.1582953 0.77824582,20.2920507 0.802943997,20.3286575 C0.827642174,20.3652642 0.997706764,20.3286575 0.997706764,20.3652642 C1.00970302,20.401871 0.839638431,20.4624129 0.839638431,20.4990197 C0.839638431,20.5356264 0.997706764,20.5961683 0.997706764,20.6327751 C0.985710507,20.6693819 0.815645916,20.6327751 0.802943997,20.6693819 C0.790242077,20.7059886 0.90032538,20.8270725 0.863630946,20.8636792 C0.839638431,20.8862065 0.705562613,20.7770902 0.669573841,20.8017293 C0.632879406,20.8256645 0.669573841,20.9960267 0.632879406,20.9960267 C0.596184972,21.0079943 0.535498022,20.8383361 0.49950925,20.8383361 C0.462814816,20.8383361 0.402127866,20.9960267 0.365433432,20.9960267 C0.328738997,20.9840591 0.365433432,20.8144009 0.328738997,20.8017293 C0.292750225,20.7897618 0.170670664,20.898878 0.134681892,20.8622713 C0.109983715,20.8383361 0.219361356,20.7045807 0.195368841,20.6679739 C0.171376326,20.6313671 0.000606073544,20.6679739 0.000606073544,20.6313671 C-0.0113901839,20.5947604 0.158674407,20.5342185 0.158674407,20.4976117 C0.158674407,20.4610049 0.000606073544,20.400463 0.000606073544,20.3638563 C0.012602331,20.3272495 0.182666922,20.3638563 0.195368841,20.3272495 C0.207365099,20.2906428 0.0979874573,20.1695589 0.134681892,20.1329521 C0.158674407,20.1104249 0.292750225,20.2195412 0.328738997,20.194902 C0.365433432,20.1709668 0.328738997,20.0006046 0.365433432,20.0006046 C0.402127866,19.988637 0.462814816,20.1582953 0.49950925,20.1582953 C0.536203684,20.1582953 0.596890634,20.0006046 0.633585068,20.0006046 C0.670279503,20.0125722 0.633585068,20.1822304 0.670279503,20.194902 C0.705562613,20.2195412 0.839638431,20.1104249 0.863630946,20.1343601 Z" id="Shape-Copy-13"></path>
                        <path d="M51.460362,22.5417172 C51.5564942,22.6376198 51.1182443,23.1735457 51.2172039,23.3202202 C51.3161636,23.4668947 51.9975716,23.3202202 51.9975716,23.4668947 C52.0456377,23.6135692 51.3642297,23.8561462 51.3642297,24.0028207 C51.3642297,24.1494951 51.9975716,24.3920722 51.9975716,24.5387466 C51.9495055,24.6854211 51.2680975,24.5387466 51.2172039,24.6854211 C51.1663104,24.8320956 51.6073878,25.3172496 51.460362,25.4639241 C51.3642297,25.5541853 50.8270201,25.1169826 50.6828217,25.2157058 C50.5357959,25.3116083 50.6828217,25.9942088 50.5357959,25.9942088 C50.3887701,26.04216 50.1456121,25.3623802 50.0014137,25.3623802 C49.8543879,25.3623802 49.6112299,25.9942088 49.4642041,25.9942088 C49.3171783,25.9462575 49.4642041,25.2664777 49.3171783,25.2157058 C49.1729799,25.1677545 48.6838364,25.6049573 48.539638,25.4582828 C48.4406784,25.3623802 48.8789283,24.8264543 48.7827961,24.6797798 C48.6866638,24.5331053 48.0024284,24.6797798 48.0024284,24.5331053 C47.9543623,24.3864308 48.6357703,24.1438538 48.6357703,23.9971793 C48.6357703,23.8505049 48.0024284,23.6079278 48.0024284,23.4612534 C48.0504945,23.3145789 48.7319025,23.4612534 48.7827961,23.3145789 C48.8308622,23.1679044 48.3926122,22.6827504 48.539638,22.5360759 C48.6357703,22.4458147 49.1729799,22.8830174 49.3171783,22.7842942 C49.4642041,22.6883917 49.3171783,22.0057912 49.4642041,22.0057912 C49.6112299,21.95784 49.8543879,22.6376198 50.0014137,22.6376198 C50.1484395,22.6376198 50.3915975,22.0057912 50.5386233,22.0057912 C50.6856491,22.0537425 50.5386233,22.7335223 50.6856491,22.7842942 C50.8270201,22.8830174 51.3642297,22.4458147 51.460362,22.5417172 Z" id="Shape-Copy-3"></path>
                        <path d="M34.1942388,8.80720095 C34.3386804,8.95129747 33.6801964,9.75654273 33.8288863,9.97692564 C33.9775763,10.1973086 35.0014128,9.97692564 35.0014128,10.1973086 C35.0736336,10.4176915 34.0497971,10.7821709 34.0497971,11.0025538 C34.0497971,11.2229367 35.0014128,11.5874162 35.0014128,11.8077991 C34.9291919,12.028182 33.9053554,11.8077991 33.8288863,12.028182 C33.7524172,12.2485649 34.4151495,12.9775238 34.1942388,13.1979067 C34.0497971,13.3335269 33.2426231,12.6766163 33.0259606,12.824951 C32.8050498,12.9690475 33.0259606,13.9946757 32.8050498,13.9946757 C32.5841391,14.0667239 32.2187866,13.0453339 32.0021241,13.0453339 C31.7812134,13.0453339 31.4158609,13.9946757 31.1949502,13.9946757 C30.9740394,13.9226274 31.1949502,12.9012374 30.9740394,12.824951 C30.7573769,12.7529027 30.0224237,13.4098133 29.8057612,13.1894304 C29.6570713,13.0453339 30.3155553,12.2400886 30.1711137,12.0197057 C30.026672,11.7993228 28.9985872,12.0197057 28.9985872,11.7993228 C28.9263664,11.5789399 29.9502029,11.2144605 29.9502029,10.9940775 C29.9502029,10.7736946 28.9985872,10.4092152 28.9985872,10.1888323 C29.0708081,9.96844938 30.0946446,10.1888323 30.1711137,9.96844938 C30.2433345,9.74806646 29.5848505,9.0191076 29.8057612,8.79872469 C29.9502029,8.66310443 30.7573769,9.32001504 30.9740394,9.17168038 C31.1949502,9.02758386 30.9740394,8.00195569 31.1949502,8.00195569 C31.4158609,7.92990743 31.7812134,8.95129747 32.0021241,8.95129747 C32.2230349,8.95129747 32.5883874,8.00195569 32.8092981,8.00195569 C33.0302089,8.07400395 32.8092981,9.09539399 33.0302089,9.17168038 C33.2426231,9.32001504 34.0497971,8.66310443 34.1942388,8.80720095 Z" id="Shape-Copy-4"></path>
                        <path d="M17.730181,47.2691743 C17.7782471,47.3171256 17.5591221,47.5850885 17.608602,47.6584258 C17.6580818,47.731763 17.9987858,47.6584258 17.9987858,47.731763 C18.0228189,47.8051003 17.6821149,47.9263888 17.6821149,47.999726 C17.6821149,48.0730633 17.9987858,48.1943518 17.9987858,48.267689 C17.9747527,48.3410262 17.6340487,48.267689 17.608602,48.3410262 C17.5831552,48.4143635 17.8036939,48.6569405 17.730181,48.7302777 C17.6821149,48.7754083 17.41351,48.556807 17.3414109,48.6061686 C17.267898,48.6541198 17.3414109,48.9954201 17.267898,48.9954201 C17.1943851,49.0193957 17.072806,48.6795058 17.0007069,48.6795058 C16.927194,48.6795058 16.8056149,48.9954201 16.732102,48.9954201 C16.6585891,48.9714444 16.732102,48.6315545 16.6585891,48.6061686 C16.58649,48.5821929 16.3419182,48.8007943 16.269819,48.7274571 C16.2203392,48.6795058 16.4394642,48.4115428 16.391398,48.3382056 C16.3433319,48.2648683 16.0012142,48.3382056 16.0012142,48.2648683 C15.9771811,48.1915311 16.3178851,48.0702426 16.3178851,47.9969053 C16.3178851,47.9235681 16.0012142,47.8022796 16.0012142,47.7289424 C16.0252473,47.6556051 16.3659513,47.7289424 16.391398,47.6556051 C16.4154311,47.5822679 16.1963061,47.3396909 16.269819,47.2663536 C16.3178851,47.221223 16.58649,47.4398244 16.6585891,47.3904628 C16.732102,47.3425115 16.6585891,47.0012113 16.732102,47.0012113 C16.8056149,46.9772357 16.927194,47.3171256 17.0007069,47.3171256 C17.0742198,47.3171256 17.1957988,47.0012113 17.2693117,47.0012113 C17.3428246,47.0251869 17.2693117,47.3650768 17.3428246,47.3904628 C17.41351,47.4398244 17.6821149,47.221223 17.730181,47.2691743 Z" id="Shape-Copy-5"></path>
                        <path d="M33.730181,56.2691743 C33.7782471,56.3171256 33.5591221,56.5850885 33.608602,56.6584258 C33.6580818,56.731763 33.9987858,56.6584258 33.9987858,56.731763 C34.0228189,56.8051003 33.6821149,56.9263888 33.6821149,56.999726 C33.6821149,57.0730633 33.9987858,57.1943518 33.9987858,57.267689 C33.9747527,57.3410262 33.6340487,57.267689 33.608602,57.3410262 C33.5831552,57.4143635 33.8036939,57.6569405 33.730181,57.7302777 C33.6821149,57.7754083 33.41351,57.556807 33.3414109,57.6061686 C33.267898,57.6541198 33.3414109,57.9954201 33.267898,57.9954201 C33.1943851,58.0193957 33.072806,57.6795058 33.0007069,57.6795058 C32.927194,57.6795058 32.8056149,57.9954201 32.732102,57.9954201 C32.6585891,57.9714444 32.732102,57.6315545 32.6585891,57.6061686 C32.58649,57.5821929 32.3419182,57.8007943 32.269819,57.7274571 C32.2203392,57.6795058 32.4394642,57.4115428 32.391398,57.3382056 C32.3433319,57.2648683 32.0012142,57.3382056 32.0012142,57.2648683 C31.9771811,57.1915311 32.3178851,57.0702426 32.3178851,56.9969053 C32.3178851,56.9235681 32.0012142,56.8022796 32.0012142,56.7289424 C32.0252473,56.6556051 32.3659513,56.7289424 32.391398,56.6556051 C32.4154311,56.5822679 32.1963061,56.3396909 32.269819,56.2663536 C32.3178851,56.221223 32.58649,56.4398244 32.6585891,56.3904628 C32.732102,56.3425115 32.6585891,56.0012113 32.732102,56.0012113 C32.8056149,55.9772357 32.927194,56.3171256 33.0007069,56.3171256 C33.0742198,56.3171256 33.1957988,56.0012113 33.2693117,56.0012113 C33.3428246,56.0251869 33.2693117,56.3650768 33.3428246,56.3904628 C33.41351,56.4398244 33.6821149,56.221223 33.730181,56.2691743 Z" id="Shape-Copy-6"></path>
                    </g>
                    <g transform="translate(0.000000, 20.000000)" fill="#168BEB" fill-rule="nonzero">
                        <g>
                            <path d="M33.8457853,0 C33.8683153,0.651810847 33.8795804,1.16314522 33.9133755,1.67447959 C33.9415381,2.16895679 33.9922307,2.66343398 34.0372909,3.18600647 C34.8709035,3.78162673 35.8396966,4.17496086 36.7296344,4.82115265 C36.5550263,4.91667665 36.4480085,4.98410536 36.3297256,5.03467689 C35.6988836,5.27629643 35.0624091,5.51229691 34.4315671,5.75391645 C33.6655447,6.05172658 33.8176227,5.98429787 33.6430146,6.70353742 C33.4740391,7.38344357 33.3557562,8.06896877 33.2149433,8.75449397 C33.1980457,8.83877985 33.1642506,8.91744668 33.147353,8.98487539 C32.972745,9.04106598 32.9164198,8.9286848 32.8488296,8.84439891 C32.4094932,8.30496925 31.9419942,7.7767777 31.5364529,7.20925274 C31.2210319,6.76534707 30.8661833,6.6248706 30.3254616,6.72601366 C29.6833546,6.84963296 29.02435,6.87772825 28.3766104,6.94515696 C28.2639601,6.95639508 28.1569422,6.94515696 28.0611894,6.94515696 C27.9429065,6.81029954 28.0217618,6.7203946 28.0837195,6.63048966 C28.4667307,6.04610752 28.8497419,5.46172538 29.2271206,4.87172418 C29.351036,4.68629523 29.4580538,4.48962816 29.5763367,4.2929611 C29.2327531,3.29838765 28.6976639,2.40495726 28.3315503,1.37666946 C28.9060671,1.42724099 29.3791986,1.62390806 29.8748602,1.7419083 C30.3761543,1.85990854 30.8718158,2.00600407 31.384375,2.14648055 C32.2292526,1.50028876 32.9164198,0.713620497 33.8457853,0 Z" id="Shape"></path>
                            <path d="M89.3571868,5 C89.3778338,5.59733163 89.3881573,6.065928 89.4191277,6.53452437 C89.4449364,6.98767251 89.4913921,7.44082064 89.5326861,7.91971583 C90.2966243,8.46555336 91.1844444,8.82601211 92,9.41819433 C91.8399859,9.50573431 91.7419128,9.56752724 91.6335161,9.61387193 C91.0554007,9.83529659 90.4721236,10.0515718 89.8940082,10.2729965 C89.192011,10.5459153 89.3313781,10.4841223 89.171364,11.1432469 C89.0165116,11.7663256 88.908115,12.3945537 88.7790714,13.0227818 C88.7635862,13.1000229 88.7326157,13.1721147 88.7171305,13.2339076 C88.5571164,13.2854017 88.5054989,13.1824135 88.443558,13.1051723 C88.0409419,12.6108289 87.6125171,12.1267843 87.2408715,11.6066939 C86.9518138,11.1998904 86.6266239,11.0711551 86.1310964,11.1638445 C85.5426576,11.2771316 84.9387334,11.3028786 84.3451328,11.3646716 C84.2418979,11.3749704 84.1438248,11.3646716 84.0560751,11.3646716 C83.9476785,11.2410857 84.0199429,11.1586951 84.0767221,11.0763046 C84.4277207,10.5407658 84.7787194,10.0052271 85.1245562,9.46453903 C85.2381146,9.29460847 85.3361878,9.1143791 85.4445844,8.93414973 C85.129718,8.02270405 84.6393523,7.20394775 84.3038389,6.26160561 C84.8303368,6.3079503 85.2639234,6.48817968 85.7181569,6.5963173 C86.1775521,6.70445492 86.6317857,6.8383396 87.1015044,6.96707486 C87.8757661,6.37489264 88.5054989,5.65397515 89.3571868,5 Z" id="Shape-Copy"></path>
                            <path d="M11.1448486,4 C11.1723854,4.7966577 11.1861538,5.42162193 11.2274589,6.04658617 C11.2618798,6.65094718 11.3238375,7.2553082 11.3789111,7.89400791 C12.3977709,8.62198822 13.5818514,9.10272994 14.6695531,9.8925199 C14.4561433,10.0092715 14.3253437,10.0916843 14.1807758,10.153494 C13.4097467,10.4488067 12.6318334,10.7372518 11.8608042,11.0325645 C10.9245546,11.3965547 11.1104277,11.3141418 10.8970179,12.1932124 C10.6904922,13.0242088 10.5459242,13.8620729 10.3738195,14.6999371 C10.353167,14.8029532 10.3118618,14.8991015 10.2912093,14.9815144 C10.0777994,15.0501918 10.0089575,14.912837 9.92634728,14.8098209 C9.38938058,14.150518 8.81799293,13.5049505 8.32233136,12.8113089 C7.93681681,12.2687575 7.50311293,12.0970641 6.84223084,12.2206834 C6.05743335,12.3717736 5.2519833,12.4061123 4.46030162,12.4885252 C4.32261785,12.5022607 4.19181827,12.4885252 4.07478707,12.4885252 C3.93021911,12.3236994 4.02659775,12.2138156 4.10232382,12.1039318 C4.57044864,11.389687 5.03857345,10.6754421 5.49981408,9.95432955 C5.65126623,9.72769417 5.78206581,9.48732331 5.92663377,9.24695245 C5.50669827,8.03136268 4.85270036,6.93939221 4.40522811,5.68259601 C5.10741534,5.74440566 5.68568717,5.98477652 6.29149576,6.12899903 C6.90418853,6.27322155 7.50999712,6.45178276 8.13645827,6.62347623 C9.16908655,5.83368626 10.0089575,4.87220283 11.1448486,4 Z" id="Shape-Copy-7"></path>
                            <path d="M1.29906339,6 C1.30407007,6.14484685 1.30657341,6.25847672 1.31408344,6.37210658 C1.32034179,6.4819904 1.33160683,6.59187422 1.34162019,6.70800144 C1.52686745,6.84036149 1.74215479,6.92776908 1.93991875,7.07136726 C1.90111696,7.09259481 1.87733522,7.10757897 1.85105014,7.11881709 C1.71086303,7.17251032 1.56942425,7.22495487 1.42923714,7.2786481 C1.25900993,7.34482813 1.29280504,7.32984397 1.25400325,7.48967498 C1.21645313,7.64076524 1.19016804,7.79310417 1.15887628,7.9454431 C1.15512127,7.9641733 1.14761124,7.98165482 1.14385623,7.99663898 C1.10505444,8.00912577 1.09253774,7.98415218 1.07751769,7.96542198 C0.979887378,7.84554872 0.875998715,7.72817282 0.78587843,7.60205616 C0.715784874,7.50341046 0.636929624,7.47219347 0.516769243,7.4946697 C0.374078791,7.52214066 0.227633327,7.52838406 0.0836912038,7.54336821 C0.0586577911,7.54586557 0.0348760491,7.54336821 0.0135976483,7.54336821 C-0.012687435,7.5133999 0.00483595387,7.49342102 0.0186043308,7.47344215 C0.103717934,7.34357945 0.188831537,7.21371675 0.27269347,7.08260537 C0.300230224,7.04139894 0.324011966,6.99769515 0.350297049,6.95399136 C0.27394514,6.73297503 0.15503643,6.53443495 0.0736778388,6.30592655 C0.201348243,6.31716467 0.306488577,6.36086846 0.416635593,6.38709073 C0.528034279,6.41331301 0.638181295,6.44577868 0.752083323,6.47699568 C0.939833918,6.3333975 1.09253774,6.15858233 1.29906339,6 Z" id="Shape-Copy-8"></path>
                            <path d="M85.2990634,0 C85.3040701,0.144846855 85.3065734,0.258476715 85.3140834,0.372106576 C85.3203418,0.481990397 85.3316068,0.591874218 85.3416202,0.708001438 C85.5268674,0.840361495 85.7421548,0.92776908 85.9399188,1.07136726 C85.901117,1.09259481 85.8773352,1.10757897 85.8510501,1.11881709 C85.710863,1.17251032 85.5694242,1.22495487 85.4292371,1.2786481 C85.2590099,1.34482813 85.292805,1.32984397 85.2540032,1.48967498 C85.2164531,1.64076524 85.190168,1.79310417 85.1588763,1.9454431 C85.1551213,1.9641733 85.1476112,1.98165482 85.1438562,1.99663898 C85.1050544,2.00912577 85.0925377,1.98415218 85.0775177,1.96542198 C84.9798874,1.84554872 84.8759987,1.72817282 84.7858784,1.60205616 C84.7157849,1.50341046 84.6369296,1.47219347 84.5167692,1.4946697 C84.3740788,1.52214066 84.2276333,1.52838406 84.0836912,1.54336821 C84.0586578,1.54586557 84.034876,1.54336821 84.0135976,1.54336821 C83.9873126,1.5133999 84.004836,1.49342102 84.0186043,1.47344215 C84.1037179,1.34357945 84.1888315,1.21371675 84.2726935,1.08260537 C84.3002302,1.04139894 84.324012,0.997695148 84.350297,0.953991355 C84.2739451,0.732975033 84.1550364,0.534434948 84.0736778,0.305926547 C84.2013482,0.317164665 84.3064886,0.360868458 84.4166356,0.387090733 C84.5280343,0.413313009 84.6381813,0.445778683 84.7520833,0.476995678 C84.9398339,0.333397502 85.0925377,0.158582333 85.2990634,0 Z" id="Shape-Copy-9"></path>
                            <path d="M96.008945,15 C96.0166877,15.2239994 96.020559,15.399723 96.0321729,15.5754466 C96.0418512,15.7453772 96.0592721,15.9153077 96.0747573,16.0948934 C96.3612341,16.2995825 96.6941666,16.4347545 97,16.6568229 C96.9399947,16.6896504 96.9032173,16.7128227 96.8625686,16.730202 C96.6457753,16.8132362 96.4270464,16.8943394 96.2102531,16.9773737 C95.9470041,17.0797182 95.9992668,17.0565459 95.9392615,17.3037176 C95.8811919,17.5373721 95.8405431,17.7729576 95.7921518,18.0085432 C95.7863448,18.0375086 95.7747309,18.064543 95.7689239,18.0877154 C95.7089186,18.1070256 95.6895621,18.0684051 95.6663342,18.0394396 C95.5153532,17.8540608 95.3546939,17.6725441 95.2153268,17.4775102 C95.1069302,17.3249589 94.984984,17.2766832 94.7991612,17.3114417 C94.5784966,17.3539243 94.352025,17.3635795 94.1294248,17.3867518 C94.0907117,17.3906139 94.0539343,17.3867518 94.0210282,17.3867518 C93.9803794,17.3404071 94.0074786,17.3095107 94.0287708,17.2786142 C94.1603953,17.0777872 94.2920198,16.8769602 94.4217086,16.6742021 C94.464293,16.6104782 94.5010704,16.5428922 94.5417192,16.4753061 C94.4236442,16.133514 94.2397571,15.8264804 94.1139396,15.4731021 C94.3113763,15.4904814 94.4739713,15.5580674 94.6443088,15.598619 C94.8165821,15.6391706 94.9869196,15.6893773 95.1630642,15.7376531 C95.4534123,15.5155847 95.6895621,15.2452407 96.008945,15 Z" id="Shape-Copy-10"></path>
                            <path d="M87.9485951,29 C87.9561051,29.2172703 87.9598601,29.3877151 87.9711252,29.5581599 C87.9805127,29.7229856 87.9974102,29.8878113 88.0124303,30.0620022 C88.2903012,30.2605422 88.6132322,30.3916536 88.9098781,30.6070509 C88.8516754,30.6388922 88.8160028,30.6613685 88.7765752,30.6782256 C88.5662945,30.7587655 88.3541364,30.8374323 88.1438557,30.9179721 C87.8885149,31.0172422 87.9392076,30.994766 87.8810049,31.2345125 C87.8246797,31.4611479 87.7852521,31.6896563 87.7383144,31.9181647 C87.7326819,31.94626 87.7214169,31.9724822 87.7157843,31.9949585 C87.6575817,32.0136887 87.6388066,31.9762283 87.6162765,31.948133 C87.4698311,31.7683231 87.3139981,31.5922592 87.1788176,31.4030842 C87.0736773,31.2551157 86.9553944,31.2082902 86.7751539,31.2420046 C86.5611182,31.283211 86.34145,31.2925761 86.1255368,31.3150523 C86.0879867,31.3187984 86.0523141,31.3150523 86.0203965,31.3150523 C85.9809688,31.2700998 86.0072539,31.2401315 86.0279065,31.2101632 C86.1555769,31.0153692 86.2832473,30.8205751 86.4090402,30.6239081 C86.4503453,30.5620984 86.4860179,30.4965427 86.5254456,30.430987 C86.4109177,30.0994626 86.2325546,29.8016524 86.1105168,29.4588898 C86.3020224,29.475747 86.4597329,29.5413027 86.6249534,29.5806361 C86.7920514,29.6199695 86.9572719,29.668668 87.128125,29.7154935 C87.4097509,29.5000963 87.6388066,29.2378735 87.9485951,29 Z" id="Shape-Copy-11"></path>
                        </g>
                    </g>
                    <g id="Group-Copy-4" transform="translate(50.029297, 37.884766) rotate(-179.000000) translate(-50.029297, -37.884766) translate(1.529297, 21.884766)" fill="#168BEB" fill-rule="nonzero">
                        <g id="Group">
                            <path d="M33.8457853,0 C33.8683153,0.651810847 33.8795804,1.16314522 33.9133755,1.67447959 C33.9415381,2.16895679 33.9922307,2.66343398 34.0372909,3.18600647 C34.8709035,3.78162673 35.8396966,4.17496086 36.7296344,4.82115265 C36.5550263,4.91667665 36.4480085,4.98410536 36.3297256,5.03467689 C35.6988836,5.27629643 35.0624091,5.51229691 34.4315671,5.75391645 C33.6655447,6.05172658 33.8176227,5.98429787 33.6430146,6.70353742 C33.4740391,7.38344357 33.3557562,8.06896877 33.2149433,8.75449397 C33.1980457,8.83877985 33.1642506,8.91744668 33.147353,8.98487539 C32.972745,9.04106598 32.9164198,8.9286848 32.8488296,8.84439891 C32.4094932,8.30496925 31.9419942,7.7767777 31.5364529,7.20925274 C31.2210319,6.76534707 30.8661833,6.6248706 30.3254616,6.72601366 C29.6833546,6.84963296 29.02435,6.87772825 28.3766104,6.94515696 C28.2639601,6.95639508 28.1569422,6.94515696 28.0611894,6.94515696 C27.9429065,6.81029954 28.0217618,6.7203946 28.0837195,6.63048966 C28.4667307,6.04610752 28.8497419,5.46172538 29.2271206,4.87172418 C29.351036,4.68629523 29.4580538,4.48962816 29.5763367,4.2929611 C29.2327531,3.29838765 28.6976639,2.40495726 28.3315503,1.37666946 C28.9060671,1.42724099 29.3791986,1.62390806 29.8748602,1.7419083 C30.3761543,1.85990854 30.8718158,2.00600407 31.384375,2.14648055 C32.2292526,1.50028876 32.9164198,0.713620497 33.8457853,0 Z" id="Shape"></path>
                            <path d="M1.29906339,6 C1.30407007,6.14484685 1.30657341,6.25847672 1.31408344,6.37210658 C1.32034179,6.4819904 1.33160683,6.59187422 1.34162019,6.70800144 C1.52686745,6.84036149 1.74215479,6.92776908 1.93991875,7.07136726 C1.90111696,7.09259481 1.87733522,7.10757897 1.85105014,7.11881709 C1.71086303,7.17251032 1.56942425,7.22495487 1.42923714,7.2786481 C1.25900993,7.34482813 1.29280504,7.32984397 1.25400325,7.48967498 C1.21645313,7.64076524 1.19016804,7.79310417 1.15887628,7.9454431 C1.15512127,7.9641733 1.14761124,7.98165482 1.14385623,7.99663898 C1.10505444,8.00912577 1.09253774,7.98415218 1.07751769,7.96542198 C0.979887378,7.84554872 0.875998715,7.72817282 0.78587843,7.60205616 C0.715784874,7.50341046 0.636929624,7.47219347 0.516769243,7.4946697 C0.374078791,7.52214066 0.227633327,7.52838406 0.0836912038,7.54336821 C0.0586577911,7.54586557 0.0348760491,7.54336821 0.0135976483,7.54336821 C-0.012687435,7.5133999 0.00483595387,7.49342102 0.0186043308,7.47344215 C0.103717934,7.34357945 0.188831537,7.21371675 0.27269347,7.08260537 C0.300230224,7.04139894 0.324011966,6.99769515 0.350297049,6.95399136 C0.27394514,6.73297503 0.15503643,6.53443495 0.0736778388,6.30592655 C0.201348243,6.31716467 0.306488577,6.36086846 0.416635593,6.38709073 C0.528034279,6.41331301 0.638181295,6.44577868 0.752083323,6.47699568 C0.939833918,6.3333975 1.09253774,6.15858233 1.29906339,6 Z" id="Shape-Copy-8"></path>
                            <path d="M85.2990634,0 C85.3040701,0.144846855 85.3065734,0.258476715 85.3140834,0.372106576 C85.3203418,0.481990397 85.3316068,0.591874218 85.3416202,0.708001438 C85.5268674,0.840361495 85.7421548,0.92776908 85.9399188,1.07136726 C85.901117,1.09259481 85.8773352,1.10757897 85.8510501,1.11881709 C85.710863,1.17251032 85.5694242,1.22495487 85.4292371,1.2786481 C85.2590099,1.34482813 85.292805,1.32984397 85.2540032,1.48967498 C85.2164531,1.64076524 85.190168,1.79310417 85.1588763,1.9454431 C85.1551213,1.9641733 85.1476112,1.98165482 85.1438562,1.99663898 C85.1050544,2.00912577 85.0925377,1.98415218 85.0775177,1.96542198 C84.9798874,1.84554872 84.8759987,1.72817282 84.7858784,1.60205616 C84.7157849,1.50341046 84.6369296,1.47219347 84.5167692,1.4946697 C84.3740788,1.52214066 84.2276333,1.52838406 84.0836912,1.54336821 C84.0586578,1.54586557 84.034876,1.54336821 84.0135976,1.54336821 C83.9873126,1.5133999 84.004836,1.49342102 84.0186043,1.47344215 C84.1037179,1.34357945 84.1888315,1.21371675 84.2726935,1.08260537 C84.3002302,1.04139894 84.324012,0.997695148 84.350297,0.953991355 C84.2739451,0.732975033 84.1550364,0.534434948 84.0736778,0.305926547 C84.2013482,0.317164665 84.3064886,0.360868458 84.4166356,0.387090733 C84.5280343,0.413313009 84.6381813,0.445778683 84.7520833,0.476995678 C84.9398339,0.333397502 85.0925377,0.158582333 85.2990634,0 Z" id="Shape-Copy-9"></path>
                            <path d="M96.008945,15 C96.0166877,15.2239994 96.020559,15.399723 96.0321729,15.5754466 C96.0418512,15.7453772 96.0592721,15.9153077 96.0747573,16.0948934 C96.3612341,16.2995825 96.6941666,16.4347545 97,16.6568229 C96.9399947,16.6896504 96.9032173,16.7128227 96.8625686,16.730202 C96.6457753,16.8132362 96.4270464,16.8943394 96.2102531,16.9773737 C95.9470041,17.0797182 95.9992668,17.0565459 95.9392615,17.3037176 C95.8811919,17.5373721 95.8405431,17.7729576 95.7921518,18.0085432 C95.7863448,18.0375086 95.7747309,18.064543 95.7689239,18.0877154 C95.7089186,18.1070256 95.6895621,18.0684051 95.6663342,18.0394396 C95.5153532,17.8540608 95.3546939,17.6725441 95.2153268,17.4775102 C95.1069302,17.3249589 94.984984,17.2766832 94.7991612,17.3114417 C94.5784966,17.3539243 94.352025,17.3635795 94.1294248,17.3867518 C94.0907117,17.3906139 94.0539343,17.3867518 94.0210282,17.3867518 C93.9803794,17.3404071 94.0074786,17.3095107 94.0287708,17.2786142 C94.1603953,17.0777872 94.2920198,16.8769602 94.4217086,16.6742021 C94.464293,16.6104782 94.5010704,16.5428922 94.5417192,16.4753061 C94.4236442,16.133514 94.2397571,15.8264804 94.1139396,15.4731021 C94.3113763,15.4904814 94.4739713,15.5580674 94.6443088,15.598619 C94.8165821,15.6391706 94.9869196,15.6893773 95.1630642,15.7376531 C95.4534123,15.5155847 95.6895621,15.2452407 96.008945,15 Z" id="Shape-Copy-10"></path>
                            <path d="M87.9485951,29 C87.9561051,29.2172703 87.9598601,29.3877151 87.9711252,29.5581599 C87.9805127,29.7229856 87.9974102,29.8878113 88.0124303,30.0620022 C88.2903012,30.2605422 88.6132322,30.3916536 88.9098781,30.6070509 C88.8516754,30.6388922 88.8160028,30.6613685 88.7765752,30.6782256 C88.5662945,30.7587655 88.3541364,30.8374323 88.1438557,30.9179721 C87.8885149,31.0172422 87.9392076,30.994766 87.8810049,31.2345125 C87.8246797,31.4611479 87.7852521,31.6896563 87.7383144,31.9181647 C87.7326819,31.94626 87.7214169,31.9724822 87.7157843,31.9949585 C87.6575817,32.0136887 87.6388066,31.9762283 87.6162765,31.948133 C87.4698311,31.7683231 87.3139981,31.5922592 87.1788176,31.4030842 C87.0736773,31.2551157 86.9553944,31.2082902 86.7751539,31.2420046 C86.5611182,31.283211 86.34145,31.2925761 86.1255368,31.3150523 C86.0879867,31.3187984 86.0523141,31.3150523 86.0203965,31.3150523 C85.9809688,31.2700998 86.0072539,31.2401315 86.0279065,31.2101632 C86.1555769,31.0153692 86.2832473,30.8205751 86.4090402,30.6239081 C86.4503453,30.5620984 86.4860179,30.4965427 86.5254456,30.430987 C86.4109177,30.0994626 86.2325546,29.8016524 86.1105168,29.4588898 C86.3020224,29.475747 86.4597329,29.5413027 86.6249534,29.5806361 C86.7920514,29.6199695 86.9572719,29.668668 87.128125,29.7154935 C87.4097509,29.5000963 87.6388066,29.2378735 87.9485951,29 Z" id="Shape-Copy-11"></path>
                        </g>
                    </g>
                    <g id="Rectangle-8">
                        <use fill="#FFFFFF" fill-rule="evenodd" xlink:href="#path-1"></use>
                        <rect stroke="#168BEB" stroke-width="1" x="8.5" y="25.5" width="81" height="19" rx="9.5"></rect>
                    </g>
                </g>
            </g>
            <g id="noun_1111569_cc" transform="translate(115.000000, 122.000000)" fill="#168BEB" fill-rule="nonzero">
                <path d="M13.8,27.2 L25.8,25.7 L0,0 L0,35.8 L9.1,29.1 L15.2,44 C15.6,45 16.5,45.6 17.5,45.6 C17.8,45.6 18.1,45.5 18.4,45.4 C19.7,44.9 20.3,43.4 19.8,42.1 L13.8,27.2 Z" id="Shape"></path>
            </g>
        </g>
    </g>
</svg>